<?xml version="1.0" encoding="UTF-8" standalone="no"?>
<!-- Created with Inkscape (http://www.inkscape.org/) -->

<svg
   width="503.40271"
   height="306.03027"
   viewBox="0 0 503.40271 306.03027"
   version="1.1"
   id="svg1"
   xmlns:xlink="http://www.w3.org/1999/xlink"
   xmlns="http://www.w3.org/2000/svg"
   xmlns:svg="http://www.w3.org/2000/svg">
  <defs
     id="defs1">
    <linearGradient
       id="swatch234">
      <stop
         style="stop-color:#000000;stop-opacity:1;"
         offset="0"
         id="stop234" />
    </linearGradient>
    <linearGradient
       id="linearGradient89">
      <stop
         style="stop-color:#000000;stop-opacity:1;"
         offset="0"
         id="stop88" />
      <stop
         style="stop-color:#ffffff;stop-opacity:1;"
         offset="1"
         id="stop89" />
    </linearGradient>
    <linearGradient
       xlink:href="#linearGradient89"
       id="linearGradient76"
       x1="73.143158"
       y1="102.4001"
       x2="73.143158"
       y2="-0.00085999997"
       gradientUnits="userSpaceOnUse"
       gradientTransform="translate(4.8e-5,153.59991)" />
    <linearGradient
       xlink:href="#linearGradient89"
       id="linearGradient77"
       x1="73.142815"
       y1="204.79961"
       x2="73.143158"
       y2="102.4001"
       gradientUnits="userSpaceOnUse"
       gradientTransform="translate(4.8e-5,153.59991)" />
    <linearGradient
       xlink:href="#linearGradient89"
       id="linearGradient78"
       x1="146.28564"
       y1="102.40021"
       x2="146.28607"
       y2="4.9999999e-05"
       gradientUnits="userSpaceOnUse"
       gradientTransform="translate(4.8e-5,153.59991)" />
    <linearGradient
       xlink:href="#linearGradient89"
       id="linearGradient79"
       x1="365.71414"
       y1="204.79997"
       x2="365.71414"
       y2="102.40069"
       gradientUnits="userSpaceOnUse"
       gradientTransform="translate(4.8e-5,153.59991)" />
    <linearGradient
       xlink:href="#linearGradient89"
       id="linearGradient80"
       x1="219.42863"
       y1="102.39938"
       x2="219.42863"
       y2="-0.00036999999"
       gradientUnits="userSpaceOnUse"
       gradientTransform="translate(4.8e-5,153.59991)" />
    <linearGradient
       xlink:href="#linearGradient89"
       id="linearGradient81"
       x1="146.28564"
       y1="204.79961"
       x2="146.28564"
       y2="102.39938"
       gradientUnits="userSpaceOnUse"
       gradientTransform="translate(4.8e-5,153.59991)" />
    <linearGradient
       xlink:href="#linearGradient89"
       id="linearGradient82"
       x1="292.57132"
       y1="102.39978"
       x2="292.5715"
       y2="-2.9999999e-05"
       gradientUnits="userSpaceOnUse"
       gradientTransform="translate(4.8e-5,153.59991)" />
    <linearGradient
       xlink:href="#linearGradient89"
       id="linearGradient83"
       x1="365.71414"
       y1="101.82444"
       x2="365.71414"
       y2="4.9999999e-05"
       gradientUnits="userSpaceOnUse"
       gradientTransform="translate(4.8e-5,153.59991)" />
    <linearGradient
       xlink:href="#linearGradient89"
       id="linearGradient84"
       x1="438.85718"
       y1="102.40069"
       x2="438.85718"
       y2="0.00060000003"
       gradientUnits="userSpaceOnUse"
       gradientTransform="translate(4.8e-5,153.59991)" />
    <linearGradient
       xlink:href="#linearGradient89"
       id="linearGradient85"
       x1="219.42848"
       y1="204.80019"
       x2="219.42863"
       y2="102.40021"
       gradientUnits="userSpaceOnUse"
       gradientTransform="translate(4.8e-5,153.59991)" />
    <linearGradient
       xlink:href="#linearGradient89"
       id="linearGradient86"
       x1="292.57147"
       y1="204.80019"
       x2="292.5715"
       y2="102.40018"
       gradientUnits="userSpaceOnUse"
       gradientTransform="translate(4.8e-5,153.59991)" />
    <linearGradient
       xlink:href="#linearGradient89"
       id="linearGradient88"
       x1="512"
       y1="204.79956"
       x2="512"
       y2="102.39859"
       gradientUnits="userSpaceOnUse"
       spreadMethod="pad"
       gradientTransform="translate(4.8e-5,153.59991)" />
    <linearGradient
       xlink:href="#linearGradient89"
       id="linearGradient103"
       gradientUnits="userSpaceOnUse"
       gradientTransform="translate(4.8e-5,153.59991)"
       x1="438.85703"
       y1="204.79956"
       x2="438.85718"
       y2="102.40069" />
  </defs>
  <g
     id="layer4"
     style="display:none"
     transform="translate(-4.2987041,-102.98486)">
    <rect
       style="fill:#4d4d4d;fill-opacity:1;stroke:none;stroke-width:3;stroke-linecap:butt;stroke-linejoin:round;stroke-dasharray:none;stroke-opacity:1;paint-order:markers stroke fill"
       id="rect557"
       width="512"
       height="512"
       x="0"
       y="0" />
  </g>
  <g
     id="layer1"
     style="display:none"
     transform="translate(-4.2987041,-102.98486)">
    <path
       d="m 128,256 c -6.1217,0.0419 -12.23317,0.52281 -18.28605,1.43919 -6.0739,0.91073 -12.075285,2.25764 -17.955795,4.02992 -6.380852,1.89035 -12.605588,4.27589 -18.615523,7.1341 -12.768352,6.02719 -24.453175,14.12673 -34.577656,23.96811 -0.632061,0.61279 -1.257859,1.23215 -1.87714,1.85785 l -0.116522,0.13579 C 26.729833,304.68957 18.630452,316.37415 12.603204,329.14263 7.0719748,340.7049 3.308377,353.03377 1.4391931,365.71394 0.52280137,371.76689 0.04181452,377.87822 0,384 c 0.04184633,6.1216 0.52282585,12.2325 1.4391931,18.28525 1.8692292,12.68048 5.6326495,25.00879 11.1640109,36.57132 6.027496,12.76855 14.126428,24.45223 23.96811,34.57686 l 0.118124,0.13821 c 0.619047,0.62517 1.244529,1.24396 1.876336,1.85625 10.124702,9.84177 21.808196,17.94058 34.576853,23.96811 6.009654,2.85823 12.233358,5.24359 18.613918,7.13409 5.881226,1.77269 11.882745,3.11979 17.957405,4.03072 6.05292,0.9164 12.16429,1.39739 18.28605,1.43919 6.11995,-0.0168 12.23131,-0.47254 18.28606,-1.36366 12.672,-1.81976 25.00031,-5.53064 36.57131,-11.00812 v -24.20033 -18.31902 c -10.8219,8.12469 -23.31346,13.74619 -36.57131,16.45794 l -0.0353,0.008 c -5.99804,1.22634 -12.10448,1.84716 -18.22661,1.85303 l -0.0241,8.2e-4 -0.008,-8.2e-4 c -6.14074,-0.0157 -12.26446,-0.64993 -18.27803,-1.8932 -6.23872,-1.30909 -12.323665,-3.2671 -18.155079,-5.84197 -6.549381,-2.93332 -12.730822,-6.62768 -18.416267,-11.0065 -6.738101,-5.09119 -12.738454,-11.09152 -17.829633,-17.82963 h -0.436336 l -0.01929,8.2e-4 -0.0072,-8.2e-4 h 0.02654 c 0.14091,-0.006 0.281809,-0.0122 0.422678,-0.0177 -8.257176,-10.78257 -14.008576,-23.27006 -16.8358,-36.55353 -1.243485,-6.01592 -1.877515,-12.14219 -1.89241,-18.28526 0.0151,-6.14331 0.649415,-12.26994 1.893213,-18.28606 2.826816,-13.28286 8.577815,-25.7704 16.834007,-36.55282 -0.147024,-0.007 -0.294089,-0.0129 -0.441161,-0.0185 h 0.455625 c 5.090975,-6.73784 11.0918,-12.73867 17.82963,-17.82964 5.685265,-4.37868 11.867098,-8.07327 18.416244,-11.00651 5.831169,-2.57477 11.916619,-4.53295 18.155079,-5.84197 6.01591,-1.24374 12.14293,-1.8781 18.28606,-1.89319 6.12984,0.005 12.2443,0.62515 18.24989,1.85302 l 0.0363,0.008 c 13.25771,2.71174 25.74951,8.33332 36.5713,16.45793 v -18.31898 -24.20035 c -11.57089,-5.47741 -23.89944,-9.18836 -36.5713,-11.00811 -6.05472,-0.89083 -12.1662,-1.34631 -18.28607,-1.36286 z"
       style="display:inline;vector-effect:non-scaling-stroke;fill:none;fill-opacity:1;stroke:#00349c;stroke-width:0.822857;stroke-opacity:1;-inkscape-stroke:hairline"
       id="path7" />
    <path
       d="m 91.428685,256 c -6.121251,0.0418 -12.233631,0.52288 -18.286058,1.43919 -6.073665,0.91068 -12.075486,2.2577 -17.955792,4.02991 -6.380607,1.89029 -12.605817,4.276 -18.615522,7.1341 -12.767895,6.02698 -24.45354,14.12709 -34.5776549,23.96811 -0.6320362,0.61277 -1.25788443,1.23219 -1.87714161,1.85786 L 0,294.56497 v 34.57766 3.50196 33.06935 V 384 v 18.28525 33.06936 3.50196 34.57685 0.10205 1.89241 35.13293 V 512 h 18.286058 18.285255 v -1.36366 -11.24035 -23.96811 -1.86107 -16.88061 -17.82963 -3.15643 -33.41489 h 3.501963 29.912926 3.156425 18.282042 0.01526 16.413741 1.86107 33.41409 1.79357 1.36366 v 36.57132 18.25231 18.319 24.20034 V 512 h 36.57131 V 475.42788 473.53708 438.85657 402.28525 384 365.71394 329.14263 294.46211 c -0.6236,-0.63676 -1.25403,-1.26719 -1.8908,-1.8908 -10.13738,-9.93284 -21.85982,-18.11285 -34.68051,-24.20034 -11.57008,-5.47703 -23.90033,-9.18849 -36.57131,-11.00811 C 103.66048,256.47209 97.548108,256.01654 91.428685,256 Z m 0,36.57131 c 6.129339,0.004 12.244785,0.62526 18.249905,1.85304 l 0.0362,0.008 c 13.25681,2.71155 25.75025,8.33389 36.57131,16.45793 v 18.25231 36.57131 h -1.3637 -1.79357 -33.41408 -1.86107 H 91.428685 73.142627 69.986202 40.073276 36.571313 v -33.41488 -3.15643 -17.82963 c 5.685005,-4.37848 11.867398,-8.07341 18.416238,-11.00651 5.830947,-2.57467 11.916848,-4.533 18.155076,-5.84196 6.015567,-1.24369 12.143293,-1.87811 18.286058,-1.89321 z"
       style="display:inline;vector-effect:non-scaling-stroke;fill:none;fill-opacity:1;stroke:#00349c;stroke-width:0.822857;stroke-opacity:1;-inkscape-stroke:hairline"
       id="path10-7" />
    <path
       d="m 54.857369,256.00001 c -6.121329,0.0418 -12.233561,0.52287 -18.286057,1.43919 C 23.891907,259.30828 11.56157,263.07232 0,268.60322 v 23.9681 18.74168 17.82964 36.57131 V 384 v 18.28526 36.57131 17.82963 18.74169 23.9681 V 512 h 36.571312 v -1.43919 -35.13292 -1.89241 -0.10206 l 0.118125,0.13822 c 0.619031,0.62516 1.244546,1.24398 1.876335,1.85625 10.12448,9.84154 21.808475,17.94069 34.576851,23.9681 6.009642,2.85825 12.233371,5.2436 18.613916,7.1341 5.881268,1.7727 11.882691,3.11978 17.957391,4.03072 6.05302,0.9164 12.16421,1.39738 18.28606,1.43919 6.12005,-0.0168 12.23122,-0.47254 18.28606,-1.36366 12.67225,-1.81981 25.00007,-5.53053 36.57131,-11.00812 v -24.20033 -18.31901 c -10.82214,8.12486 -23.31318,13.74611 -36.57131,16.45794 l -0.0353,0.008 c -5.99815,1.22636 -12.10435,1.84716 -18.22659,1.85303 l -0.0241,8.3e-4 -0.008,-8.3e-4 c -6.14071,-0.0156 -12.26448,-0.64993 -18.27803,-1.89321 -6.23867,-1.30906 -12.323705,-3.2671 -18.155071,-5.84196 -6.549313,-2.93329 -12.730874,-6.62772 -18.416266,-11.0065 -6.737936,-5.09105 -12.738572,-11.09169 -17.829631,-17.82963 h -0.436336 l -0.0193,8.3e-4 -0.0072,-8.3e-4 h 0.02654 c 0.14091,-0.005 0.281812,-0.0112 0.422677,-0.0177 C 47.042571,428.05633 41.291014,415.5685 38.463831,402.28522 h 16.389628 0.01526 18.27401 3.501962 29.912929 3.15642 18.28205 0.0153 16.41374 1.86107 33.41408 c 2.08296,-5.87116 3.15079,-12.05556 3.15723,-18.28526 -0.0168,-6.11974 -0.47258,-12.23151 -1.36366,-18.28606 -1.8197,-12.67153 -5.53084,-25.00071 -11.00812,-36.57131 -6.08743,-12.82102 -14.26668,-24.54276 -24.19953,-34.68051 l -0.0362,-0.0378 c -0.61182,-0.62394 -1.23016,-1.24174 -1.85464,-1.85303 -10.13779,-9.93307 -21.86013,-18.11282 -34.68131,-24.20034 -5.80313,-2.74749 -11.806464,-5.05506 -17.955799,-6.90187 -6.093919,-1.82939 -12.317487,-3.20219 -18.61552,-4.10624 C 67.088543,256.47212 60.976586,256.01658 54.85736,256 Z m 0,36.57131 c 6.141607,0.005 12.268659,0.6282 18.285254,1.86108 6.328553,1.30165 12.502795,3.27101 18.416237,5.8741 6.43782,2.81793 12.53071,6.36962 18.15507,10.58303 6.91618,5.19015 13.06246,11.3367 18.25231,18.25311 h 0.0337 l -0.0305,0.003 c 8.12306,10.82074 13.74414,23.31211 16.45552,36.5681 H 127.99999 109.71393 106.55751 76.644585 73.142623 54.857369 38.464523 36.571312 v -33.06935 -3.50197 -34.57765 -0.10045 l 0.116516,-0.0353 c 5.97876,-1.22407 12.066772,-1.84658 18.169541,-1.85785 z"
       style="display:inline;vector-effect:non-scaling-stroke;fill:none;fill-opacity:1;stroke:#00349c;stroke-width:0.822857;stroke-opacity:1;-inkscape-stroke:hairline"
       id="path10-3" />
    <path
       d="m 54.857371,256 c -6.121473,0.0418 -12.233413,0.52285 -18.286058,1.43919 C 23.891756,259.30829 11.561711,263.07224 0,268.6032 V 292.57131 311.313 329.14263 365.71394 384 v 18.28525 36.57132 17.82963 18.74168 23.96811 c 11.561756,5.53129 23.891608,9.29545 36.571313,11.16482 6.053032,0.9164 12.164195,1.39738 18.286058,1.43919 6.119786,-0.0168 12.230669,-0.47257 18.285256,-1.36366 6.297996,-0.9042 12.52003,-2.27679 18.613917,-4.10625 6.150359,-1.84687 12.153296,-4.15408 17.957396,-6.90187 12.82198,-6.08789 24.5429,-14.26665 34.68131,-24.20034 0.62478,-0.61131 1.24333,-1.22905 1.85545,-1.85303 l 0.0353,-0.0378 c 9.93325,-10.13815 18.11186,-21.85898 24.19954,-34.68051 5.47744,-11.57094 9.18835,-23.8994 11.00812,-36.57132 0.89105,-6.05441 1.34681,-12.16563 1.36366,-18.28525 -0.0168,-6.11987 -0.47257,-12.23139 -1.36366,-18.28606 -1.81974,-12.67174 -5.53076,-25.00053 -11.00812,-36.57131 -6.08757,-12.82131 -14.26647,-24.54254 -24.19954,-34.68052 l -0.0362,-0.0378 c -0.61184,-0.62396 -1.23016,-1.24174 -1.85465,-1.85304 -10.13809,-9.93336 -21.85974,-18.11264 -34.68131,-24.20034 -5.80327,-2.74756 -11.806297,-5.05501 -17.955792,-6.90187 -6.094093,-1.82944 -12.317312,-3.20217 -18.615522,-4.10624 C 67.088385,256.4721 60.976725,256.01658 54.857351,256 Z m 0,36.57131 c 6.141719,0.005 12.268553,0.62818 18.285256,1.86107 6.328676,1.30169 12.502676,3.27097 18.416238,5.87411 6.437947,2.81799 12.530595,6.36954 18.155075,10.58303 6.91632,5.19025 13.06235,11.33657 18.25231,18.25311 h 0.0337 l -0.0305,0.003 c 8.12326,10.821 13.74407,23.3118 16.45552,36.5681 H 128 109.71394 106.55752 76.644589 73.142627 54.857371 38.464525 36.571313 v -33.06935 -3.50197 -34.57765 -0.10045 l 0.116517,-0.0353 c 5.978892,-1.2241 12.066636,-1.84658 18.169541,-1.85785 z M 36.571313,402.28525 h 1.89241 16.389629 0.01526 18.274011 3.501962 29.912935 3.15642 18.28204 0.0153 16.41373 c -2.71162,13.25689 -8.33252,25.74755 -16.45632,36.56891 l 0.0241,0.002 h 0.0265 l -0.0193,8.2e-4 -0.007,-8.2e-4 h -0.0265 c -5.1901,6.91673 -11.3358,13.0627 -18.25231,18.25311 -5.62474,4.21368 -11.716837,7.76491 -18.155081,10.58303 -5.913821,2.60325 -12.087282,4.57236 -18.416238,5.8741 -6.009169,1.23136 -12.127116,1.85487 -18.26115,1.86107 l -0.02411,8.2e-4 -0.008,-8.2e-4 c -6.100042,-0.0114 -12.183705,-0.63324 -18.159898,-1.85625 l -0.118125,-0.0362 v -0.10206 -34.57685 -3.50196 z"
       style="display:inline;vector-effect:non-scaling-stroke;fill:none;fill-opacity:1;stroke:#00349c;stroke-width:0.822857;stroke-opacity:1;-inkscape-stroke:hairline"
       id="path10-73" />
    <path
       d="m 91.428673,256.00003 c -6.121814,0.0418 -12.233074,0.5228 -18.286056,1.43919 -6.074075,0.91075 -12.075081,2.25758 -17.955789,4.02992 -6.381051,1.89041 -12.605396,4.27579 -18.615519,7.1341 -12.768865,6.02742 -24.452768,14.12633 -34.5776512,23.9681 -0.6320813,0.61281 -1.25783486,1.23213 -1.87714132,1.85785 L 0,294.565 v 34.57765 3.50196 33.06935 18.28605 18.28526 33.06935 3.50196 34.57684 l 0.11812516,0.13822 c 0.61903081,0.62516 1.24454574,1.24398 1.87633494,1.85625 10.1243809,9.84144 21.8086009,17.94076 34.5768489,23.9681 6.00951,2.85818 12.23351,5.24364 18.613914,7.1341 5.881103,1.77265 11.882866,3.11981 17.957394,4.03072 6.052764,0.91636 12.16446,1.39738 18.286056,1.43919 6.119785,-0.0168 12.231477,-0.47257 18.286057,-1.36366 12.67166,-1.81972 25.0006,-5.53078 36.57131,-11.00811 12.82195,-6.08809 24.54214,-14.26653 34.68051,-24.20034 0.63683,-0.62366 1.26714,-1.25397 1.8908,-1.89081 v -34.6805 -36.57131 -18.28526 -18.28605 -36.57131 -34.68051 c -0.62365,-0.63681 -1.25398,-1.26715 -1.8908,-1.8908 -10.13819,-9.93363 -21.85879,-18.11236 -34.68051,-24.20034 -11.57122,-5.47757 -23.89909,-9.18831 -36.57131,-11.00811 -6.05482,-0.89085 -12.16607,-1.34632 -18.286057,-1.36286 z m 0,36.57131 c 6.129952,0.004 12.244187,0.62513 18.249897,1.85303 l 0.0362,0.008 c 13.25805,2.7118 25.74923,8.33312 36.57131,16.45793 V 329.1426 365.71391 384 v 18.28525 36.57131 18.25231 c -10.82172,8.12453 -23.31371,13.74622 -36.57131,16.45793 l -0.0354,0.008 c -5.99786,1.22631 -12.104646,1.84716 -18.226587,1.85304 l -0.02411,8.2e-4 -0.008,-8.2e-4 c -6.140522,-0.0156 -12.264651,-0.64997 -18.278021,-1.89321 -6.238539,-1.30903 -12.323835,-3.26716 -18.155073,-5.84196 -6.549226,-2.93323 -12.73096,-6.62776 -18.416268,-11.00648 v -17.82963 -3.15643 -33.41488 -18.28526 -18.28605 -33.41488 -3.15643 -17.82963 c 5.685391,-4.37878 11.866952,-8.0732 18.416235,-11.00651 5.831333,-2.57484 11.916435,-4.53291 18.155073,-5.84196 6.016097,-1.24379 12.142749,-1.8781 18.286056,-1.89321 z"
       style="display:inline;vector-effect:non-scaling-stroke;fill:none;fill-opacity:1;stroke:#00349c;stroke-width:0.822856;stroke-opacity:1;-inkscape-stroke:hairline"
       id="path10-6" />
    <path
       d="m 91.428674,256.00001 c -6.121645,0.0418 -12.233242,0.52282 -18.286055,1.43919 -6.073907,0.91071 -12.075247,2.25763 -17.95579,4.02991 -6.380849,1.89035 -12.605586,4.27589 -18.61552,7.1341 -12.768276,6.02715 -24.453233,14.12679 -34.5776512,23.96811 -0.6320484,0.61277 -1.25786776,1.23216 -1.87714132,1.85785 L 0,294.56498 v 34.57765 3.50196 33.06935 18.28605 18.28526 33.06935 3.50196 34.57684 0.10206 1.89241 35.13292 1.43919 h 18.286056 18.285253 v -1.36366 -11.24035 -23.9681 -1.86107 -16.88062 -17.82962 -3.15643 -33.41488 -18.28526 -18.28605 -33.41489 -3.15642 -17.82963 c 5.685219,-4.37865 11.86715,-8.07329 18.416236,-11.00651 5.831168,-2.57477 11.916608,-4.53295 18.155074,-5.84196 v 16.42499 18.25311 3.50196 33.06935 18.26677 l 8.22e-4,0.0193 -8.22e-4,0.0193 v 18.26597 33.06935 3.50196 18.25311 16.42499 1.89321 24.20034 10.93258 c 6.052825,0.91637 12.164398,1.39738 18.286055,1.43919 6.119847,-0.0168 12.231416,-0.47257 18.286056,-1.36366 12.6722,-1.8198 25.00012,-5.53055 36.57131,-11.00811 12.82183,-6.08803 24.54224,-14.26663 34.68051,-24.20034 0.63682,-0.62366 1.26715,-1.25398 1.8908,-1.89081 v -34.6805 -36.57131 -18.28526 -18.28605 -36.57131 -34.68051 -1.8908 -36.57131 h -36.57131 v 12.37097 24.20034 18.319 18.25231 36.57131 18.28605 18.28526 36.57131 18.25231 c -10.82209,8.12482 -23.31323,13.74612 -36.57131,16.45793 l -0.0353,0.008 0.0353,-0.0378 V 438.85657 435.70014 402.28525 384 v -18.28606 -33.41488 -3.15643 -34.6805 -0.0297 -1.86107 -35.20845 C 103.66008,256.47204 97.548488,256.01654 91.428674,256 Z"
       style="display:inline;vector-effect:non-scaling-stroke;fill:none;stroke:#00349c;stroke-width:0.411428;-inkscape-stroke:hairline"
       id="path10-35" />
    <path
       d="m 0,256 v 1.43919 35.13212 1.89322 0.10044 34.57766 3.50196 33.06935 V 384 v 18.28525 33.06936 3.50196 34.57685 l 0.11812518,0.13822 c 0.61901854,0.62515 1.24455822,1.24399 1.87633512,1.85624 10.1241767,9.84125 21.8088587,17.94088 34.5768527,23.96811 6.009388,2.85813 12.23364,5.24368 18.613917,7.1341 5.880985,1.77262 11.882987,3.11982 17.957397,4.03072 6.052657,0.91634 12.164572,1.39738 18.286058,1.43919 6.119674,-0.0168 12.231585,-0.47259 18.286065,-1.36366 12.67138,-1.81968 25.00086,-5.5309 36.57131,-11.00812 12.821,-6.08763 24.54289,-14.26726 34.68051,-24.20034 0.63678,-0.62361 1.26718,-1.25402 1.8908,-1.8908 V 438.85657 402.28525 384 365.71394 329.14263 294.46211 292.57131 256 h -36.57131 v 12.37097 24.20034 18.31901 18.25231 36.57131 V 384 v 18.28525 36.57132 18.25231 c -10.82141,8.12431 -23.31408,13.7463 -36.57131,16.45793 l -0.0353,0.008 c -5.99776,1.22628 -12.104746,1.84716 -18.226589,1.85303 l -0.02411,8.2e-4 -0.008,-8.2e-4 c -6.140398,-0.0156 -12.264772,-0.65 -18.278022,-1.89321 -6.238418,-1.309 -12.323952,-3.26721 -18.155076,-5.84196 -6.549132,-2.93321 -12.731035,-6.62784 -18.416267,-11.0065 V 438.85657 435.70014 402.28525 384 365.71394 332.29906 329.14263 311.313 294.43238 292.57131 268.6032 257.36286 256 H 18.286058 Z"
       style="display:inline;vector-effect:non-scaling-stroke;fill:none;fill-opacity:1;stroke:#00349c;stroke-width:0.822857;stroke-opacity:1;-inkscape-stroke:hairline"
       id="path10" />
    <path
       d="m 91.428674,256.00003 c -6.121213,0.0418 -12.233666,0.52289 -18.286055,1.43919 v 10.93178 24.20034 1.89321 16.42499 18.25311 3.50196 33.06935 18.26677 l 8.22e-4,0.0193 -8.22e-4,0.0193 v 18.26597 33.06935 3.50196 18.25311 16.42499 c -6.238553,-1.30906 -12.323823,-3.26718 -18.155074,-5.84198 -6.549181,-2.93326 -12.730935,-6.6278 -18.416236,-11.00652 v -17.82962 -3.15643 -33.41488 -18.28526 -18.28605 H 18.286056 1.8932117 0 v 18.28605 18.28526 33.06935 3.50196 34.57684 l 0.11812516,0.13822 c 0.61903082,0.62516 1.24454574,1.24398 1.87633494,1.85625 10.1244219,9.84148 21.8085519,17.94073 34.5768489,23.9681 6.009498,2.85818 12.233523,5.24365 18.613915,7.1341 5.881066,1.77264 11.882903,3.11981 17.957395,4.03072 6.052775,0.91636 12.164447,1.39738 18.286055,1.43919 6.119798,-0.0168 12.231466,-0.47257 18.286056,-1.36366 v -35.20845 -1.86107 -0.0297 -34.6805 V 435.7002 402.28525 384 v -18.28606 -33.41488 -3.15643 -34.6805 -0.0297 c 13.25679,2.71154 25.75028,8.3339 36.57131,16.45793 v 18.25231 36.57131 18.28605 18.28526 h 34.71024 1.86107 v -18.28526 -18.28605 -36.57131 -34.68051 c -0.6236,-0.63676 -1.25403,-1.2672 -1.8908,-1.8908 -10.13736,-9.93282 -21.85984,-18.11286 -34.68051,-24.20034 -11.57001,-5.477 -23.90041,-9.1885 -36.57131,-11.00811 C 103.6605,256.4721 97.54806,256.01654 91.428674,256 Z"
       style="display:inline;vector-effect:non-scaling-stroke;fill:none;fill-opacity:1;stroke:#00349c;stroke-width:0.822856;stroke-opacity:1;-inkscape-stroke:hairline"
       id="path10-1" />
    <path
       d="m 54.857371,256 c -6.121633,0.0418 -12.233256,0.52282 -18.286058,1.43919 C 23.891196,259.30837 11.562217,263.072 0,268.6032 V 292.57131 311.313 329.14263 365.71394 384 v 18.28525 36.57132 17.82963 18.74168 23.96811 c 11.562291,5.53154 23.891028,9.29537 36.571313,11.16482 6.052658,0.91634 12.164573,1.39738 18.286058,1.43919 6.119408,-0.0168 12.231043,-0.47263 18.285256,-1.36366 6.297605,-0.90415 12.520409,-2.2769 18.613917,-4.10625 6.149964,-1.84675 12.153666,-4.15426 17.957396,-6.90187 12.82121,-6.08752 24.54351,-14.26724 34.68131,-24.20034 0.62475,-0.61127 1.24337,-1.22909 1.85545,-1.85303 l 0.0353,-0.0378 c 9.93269,-10.13759 18.1122,-21.85969 24.19954,-34.68051 5.47707,-11.57016 9.18848,-23.90026 11.00812,-36.57132 0.891,-6.05402 1.34681,-12.16603 1.36366,-18.28525 -0.0168,-6.11942 -0.47264,-12.23184 -1.36366,-18.28606 -1.81963,-12.67095 -5.5311,-25.00125 -11.00812,-36.57131 -6.08721,-12.82057 -14.26704,-24.54313 -24.19954,-34.68052 l -0.0362,-0.0378 c -0.61183,-0.62396 -1.23016,-1.24175 -1.85465,-1.85304 -10.138,-9.93329 -21.85984,-18.11269 -34.68131,-24.20034 -5.80334,-2.7476 -11.806223,-5.05499 -17.955792,-6.90187 -6.094216,-1.82948 -12.317139,-3.20215 -18.615501,-4.10624 C 67.08825,256.47208 60.976906,256.01658 54.857371,256 Z m 0,36.57131 c 6.141806,0.005 12.268471,0.62816 18.285256,1.86107 6.328701,1.30169 12.502651,3.27095 18.416238,5.87411 6.437947,2.81799 12.530595,6.36954 18.155075,10.58303 6.91598,5.19 13.0626,11.33689 18.25231,18.25311 h 0.0337 l -0.0305,0.003 c 8.12277,10.82035 13.74424,23.31259 16.45552,36.5681 1.23291,6.01676 1.85654,12.14428 1.86107,18.28606 -0.005,6.14153 -0.62821,12.26873 -1.86107,18.28525 -2.71144,13.25599 -8.33308,25.74828 -16.45633,36.56891 l 0.0241,0.002 h 0.0265 l -0.0193,8.2e-4 -0.007,-8.2e-4 h -0.0265 c -5.18979,6.91632 -11.33621,13.06301 -18.25231,18.25311 -5.62438,4.21342 -11.717227,7.76508 -18.155071,10.58303 -5.913467,2.6031 -12.08766,4.57243 -18.416238,5.8741 -6.008799,1.23128 -12.127499,1.85487 -18.26115,1.86107 l -0.02411,8.2e-4 -0.008,-8.2e-4 c -6.099835,-0.0114 -12.183905,-0.63329 -18.159897,-1.85625 l -0.118125,-0.0362 v -0.10206 -34.57685 -3.50196 -33.06935 -36.57132 -33.06935 -3.50196 -34.57766 -0.10044 l 0.116516,-0.0353 c 5.979024,-1.22413 12.066505,-1.84659 18.169542,-1.85786 z"
       style="display:inline;vector-effect:non-scaling-stroke;fill:none;fill-opacity:1;stroke:#00349c;stroke-width:0.822857;stroke-opacity:1;-inkscape-stroke:hairline"
       id="path10-4" />
    <path
       d="m 127.99999,256.00002 c -6.12121,0.0418 -12.23367,0.52288 -18.28606,1.43919 -6.07353,0.91066 -12.07561,2.25774 -17.955788,4.02991 -6.380479,1.89025 -12.605935,4.27605 -18.61552,7.1341 -12.767689,6.02687 -24.4537,14.12724 -34.577653,23.96811 -0.632024,0.61275 -1.257893,1.23219 -1.877141,1.85785 l -0.116517,0.13581 C 26.730284,304.6891 18.630175,316.37474 12.603204,329.14264 7.0722502,340.70432 3.3082823,353.03442 1.4391925,365.71395 0.52285538,371.76654 0.04180934,377.87858 0,384.00001 c 0.04185048,6.12118 0.52288829,12.2329 1.4391925,18.28525 1.8691145,12.67969 5.6329919,25.00949 11.1640115,36.57132 6.027132,12.76778 14.127015,24.45283 23.968107,34.57684 l 0.118125,0.13822 c 0.61901,0.62514 1.244567,1.244 1.876335,1.85625 10.124118,9.84118 21.808936,17.94091 34.576851,23.9681 6.009379,2.85812 12.233651,5.24368 18.613916,7.1341 5.880976,1.77261 11.883002,3.11983 17.957392,4.03072 6.05275,0.91636 12.16449,1.39738 18.28606,1.43919 6.11976,-0.0168 12.2315,-0.47258 18.28606,-1.36366 12.67179,-1.81974 25.00049,-5.53073 36.57131,-11.00812 v -24.20033 -18.31901 c -10.82171,8.12453 -23.31371,13.74622 -36.57131,16.45794 l -0.0353,0.008 c -5.99787,1.22631 -12.10465,1.84716 -18.22659,1.85303 l -0.0241,8.3e-4 -0.008,-8.3e-4 c -6.14047,-0.0156 -12.26469,-0.64998 -18.27802,-1.89321 -6.2384,-1.309 -12.323961,-3.26722 -18.155072,-5.84196 -6.549037,-2.93316 -12.731113,-6.6279 -18.416266,-11.0065 -6.73771,-5.09088 -12.738745,-11.09192 -17.82963,-17.82962 h -0.436337 l -0.0193,8.2e-4 -0.0072,-8.2e-4 h 0.02654 c 0.140902,-0.005 0.281816,-0.0112 0.422677,-0.0177 -8.256592,-10.78215 -14.008523,-23.2708 -16.835611,-36.55363 h 16.389627 0.01526 18.27401 3.501962 29.91293 3.15642 18.28204 0.0153 16.41374 1.86107 33.41408 1.79357 1.36366 v -18.28524 -18.28606 h -1.36366 -1.79357 -33.41408 -1.86107 -16.42499 -18.28606 -3.15642 H 76.644584 73.142622 54.857368 38.464523 c 2.826652,-13.28209 8.578291,-25.77103 16.834007,-36.55283 -0.147016,-0.007 -0.294097,-0.0129 -0.441162,-0.0185 h 0.455624 c 5.09068,-6.73745 11.092192,-12.73896 17.82963,-17.82964 5.684922,-4.37842 11.867488,-8.07345 18.416237,-11.00651 5.830831,-2.57462 11.916971,-4.53303 18.155071,-5.84196 6.01562,-1.24369 12.14325,-1.87811 18.28606,-1.89321 6.12944,0.004 12.24469,0.62523 18.2499,1.85303 l 0.0362,0.008 c 13.25687,2.71156 25.75021,8.33386 36.57132,16.45793 v -18.319 -24.20034 c -11.5702,-5.477 -23.9003,-9.18841 -36.57136,-11.00804 C 140.23182,256.4721 134.11938,256.01654 127.99999,256 Z"
       style="display:inline;vector-effect:non-scaling-stroke;fill:none;fill-opacity:1;stroke:#00349c;stroke-width:0.822857;stroke-opacity:1;-inkscape-stroke:hairline"
       id="path10-0" />
  </g>
  <g
     id="g12"
     style="display:none"
     transform="translate(-4.2987041,-102.98486)">
    <path
       d="m 51.2001,153.59991 c -2.448684,0.0167 -4.893274,0.20913 -7.31443,0.57568 -2.429563,0.36428 -4.830119,0.90305 -7.182327,1.61196 -2.552344,0.75614 -5.042241,1.71037 -7.446218,2.85365 -5.107348,2.41087 -9.781284,5.6507 -13.831081,9.58725 -0.252824,0.24512 -0.503143,0.49287 -0.750856,0.74315 l -0.04661,0.0543 c -3.936597,4.04982 -7.1763537,8.72365 -9.5872558,13.83106 -2.2124946,4.62491 -3.7179357,9.55647 -4.46561025,14.62854 -0.36655714,2.42118 -0.55895212,4.86572 -0.575677949701,7.31443 0.0167385497,2.44864 0.209130619701,4.89301 0.575677949701,7.31411 0.74769265,5.0722 2.25306275,10.00353 4.46561025,14.62855 2.4110015,5.10743 5.6505788,9.78091 9.5872558,13.83077 l 0.04725,0.0553 c 0.24762,0.25006 0.497813,0.49758 0.750535,0.74249 4.049887,3.93672 8.72329,7.17624 13.83076,9.58726 2.403864,1.1433 4.893349,2.09743 7.445576,2.85364 2.352493,0.70907 4.753105,1.24792 7.182972,1.61228 2.421171,0.36657 4.865722,0.55896 7.314429,0.57568 2.447983,-0.007 4.89253,-0.18902 7.314434,-0.54546 5.068805,-0.72791 10.000135,-2.21226 14.628539,-4.40325 v -9.68015 -7.32762 c -4.328763,3.24989 -9.325395,5.49849 -14.628539,6.58319 l -0.01412,0.003 c -2.399219,0.49053 -4.8418,0.73886 -7.290655,0.74121 l -0.0096,2.9e-4 -0.0032,-2.9e-4 c -2.456299,-0.006 -4.90579,-0.25998 -7.311221,-0.75728 -2.495491,-0.52364 -4.929472,-1.30684 -7.262041,-2.33679 -2.619755,-1.17333 -5.092334,-2.65108 -7.366516,-4.4026 -2.695244,-2.03648 -5.095388,-4.43662 -7.131862,-7.13187 h -0.174541 l -0.0077,2.9e-4 -0.0028,-2.9e-4 h 0.01061 c 0.05636,-0.003 0.112723,-0.005 0.169071,-0.007 -3.302874,-4.31304 -5.603438,-9.30804 -6.734328,-14.62144 -0.497395,-2.40637 -0.751008,-4.85688 -0.756966,-7.31411 0.006,-2.45733 0.259767,-4.90798 0.757285,-7.31443 1.130729,-5.31316 3.431132,-10.30817 6.733613,-14.62115 -0.05881,-0.003 -0.117637,-0.005 -0.176465,-0.008 h 0.18225 c 2.036394,-2.69513 4.436727,-5.09548 7.131861,-7.13187 2.27411,-1.75147 4.746846,-3.2293 7.366507,-4.40261 2.332472,-1.0299 4.766655,-1.81318 7.262041,-2.33678 2.406368,-0.49751 4.857179,-0.75125 7.314434,-0.75728 2.451939,0.003 4.897727,0.25005 7.299966,0.74121 l 0.01451,0.003 c 5.303093,1.0847 10.299817,3.33332 14.62854,6.58318 v -7.32752 -9.68015 c -4.628404,-2.19097 -9.559825,-3.67535 -14.62858,-4.40325 -2.421891,-0.35633 -4.866486,-0.53852 -7.314438,-0.54514 z"
       style="display:inline;vector-effect:non-scaling-stroke;fill:url(#linearGradient76);stroke:none;stroke-width:0.329144;stroke-opacity:1;-inkscape-stroke:hairline"
       id="path1" />
    <path
       d="m 51.200016,255.99967 c -2.448684,0.0167 -4.893274,0.20913 -7.31443,0.57568 -2.429563,0.36428 -4.830119,0.90305 -7.182327,1.61196 -2.552344,0.75614 -5.042241,1.71037 -7.446218,2.85365 -5.107348,2.41087 -9.781284,5.6507 -13.831081,9.58725 -0.252824,0.24512 -0.503143,0.49287 -0.750856,0.74315 l -0.04661,0.0543 c -3.936595,4.04982 -7.1763517,8.72365 -9.5872537,13.83106 -2.2124951,4.62491 -3.7179356,9.55646 -4.46561025,14.62854 -0.36655759,2.42118 -0.55895256,4.86572 -0.57567805,7.31443 0.01674006,2.44864 0.20913075,4.89301 0.57567805,7.31411 0.74769265,5.0722 2.25306285,10.00353 4.46561025,14.62855 2.4110014,5.10742 5.6505787,9.7809 9.5872557,13.83077 l 0.04725,0.0553 c 0.24762,0.25006 0.497813,0.49758 0.750535,0.74249 4.049887,3.93672 8.72329,7.17624 13.83076,9.58725 2.403864,1.14331 4.893349,2.09744 7.445576,2.85365 2.352493,0.70907 4.753105,1.24792 7.182972,1.61228 2.421171,0.36657 4.865722,0.55896 7.314429,0.57568 2.447983,-0.007 4.89253,-0.18902 7.314434,-0.54546 5.068805,-0.72791 10.000135,-2.21226 14.628539,-4.40326 v -9.68014 -7.32762 c -4.328763,3.24988 -9.325395,5.49849 -14.628539,6.58319 l -0.01412,0.003 c -2.399219,0.49053 -4.8418,0.73886 -7.290655,0.74121 l -0.0096,2.9e-4 -0.0032,-2.9e-4 c -2.456299,-0.006 -4.90579,-0.25998 -7.311221,-0.75728 -2.495491,-0.52364 -4.929472,-1.30684 -7.262041,-2.33679 -2.619755,-1.17334 -5.092334,-2.65108 -7.366516,-4.40261 -2.695244,-2.03648 -5.095388,-4.43661 -7.131862,-7.13187 h -0.174535 l -0.0077,3e-4 -0.0028,-3e-4 h 0.01061 c 0.05636,-0.003 0.112723,-0.005 0.169071,-0.007 -3.302874,-4.31303 -5.603438,-9.30804 -6.734328,-14.62144 -0.497395,-2.40637 -0.751008,-4.85688 -0.756966,-7.31411 0.006,-2.45733 0.259767,-4.90798 0.757285,-7.31443 1.130729,-5.31315 3.431132,-10.30817 6.733613,-14.62115 -0.05881,-0.003 -0.117637,-0.005 -0.176465,-0.008 h 0.18225 c 2.036394,-2.69514 4.436727,-5.09548 7.131861,-7.13187 2.27411,-1.75148 4.746846,-3.22931 7.366507,-4.40261 2.332472,-1.0299 4.766655,-1.81318 7.262041,-2.33679 2.406368,-0.4975 4.857179,-0.75124 7.314434,-0.75728 2.451939,0.003 4.897727,0.25006 7.299966,0.74121 l 0.01451,0.003 c 5.303093,1.0847 10.299817,3.33333 14.62854,6.58318 v -7.3276 -9.68015 c -4.628364,-2.19097 -9.559785,-3.67535 -14.62854,-4.40325 -2.421891,-0.35633 -4.866486,-0.53852 -7.314438,-0.54514 z"
       style="display:inline;vector-effect:non-scaling-stroke;fill:url(#linearGradient77);fill-opacity:1;stroke:none;stroke-width:0.329144;stroke-opacity:1;-inkscape-stroke:hairline"
       id="path1-9" />
    <path
       d="m 109.71469,153.59996 c -2.4485,0.0167 -4.89346,0.20915 -7.31443,0.57568 -2.429472,0.36427 -4.830201,0.90308 -7.182329,1.61196 -2.552247,0.75612 -5.042333,1.7104 -7.446224,2.85365 -5.107161,2.41079 -9.781424,5.65084 -13.831075,9.58725 -0.252816,0.24511 -0.503155,0.49288 -0.750858,0.74315 l -0.0466,0.0543 v 13.83108 1.40079 13.22775 7.31443 7.31412 13.22775 1.40079 13.83077 0.0408 0.75696 14.05319 0.57567 h 7.314433 7.314116 v -0.54546 -4.49615 -9.58725 -0.74444 -6.75225 -7.13186 -1.26257 -13.36597 h 1.400782 11.965185 1.26257 7.31283 0.006 6.5655 0.74444 13.36564 0.71743 0.54547 v 14.62854 7.30093 7.32762 9.68014 4.94872 h 14.62855 V 241.37121 240.61489 226.74266 212.11412 204.8 197.48557 182.85703 168.9848 c -0.24937,-0.2547 -0.50154,-0.50687 -0.75625,-0.75632 -4.05495,-3.97314 -8.74393,-7.24514 -13.87221,-9.68015 -4.62804,-2.19079 -9.56015,-3.67538 -14.62855,-4.40322 -2.42171,-0.35632 -4.86666,-0.53853 -7.31443,-0.54515 z m 0,14.62854 c 2.45173,0.002 4.89792,0.25011 7.29997,0.74122 l 0.0145,0.003 c 5.30273,1.08461 10.30011,3.33356 14.62854,6.58318 v 7.30093 14.62855 h -0.54548 -0.71743 -13.36565 -0.74443 -6.57 -7.31443 -1.26258 -11.965184 -1.40079 v -13.36595 -1.26257 -7.13186 c 2.274008,-1.7514 4.746968,-3.22937 7.366509,-4.40261 2.332379,-1.02987 4.766742,-1.8132 7.262045,-2.33679 2.40622,-0.49747 4.85731,-0.75124 7.31443,-0.75728 z"
       style="display:inline;vector-effect:non-scaling-stroke;fill:url(#linearGradient78);stroke:none;stroke-width:0.329144;stroke-opacity:1;-inkscape-stroke:hairline"
       id="path2" />
    <path
       d="m 329.14288,255.9997 c -2.4485,0.0167 -4.89346,0.20916 -7.31443,0.57568 -2.42947,0.36427 -4.8302,0.90307 -7.18232,1.61196 -2.55226,0.75611 -5.04233,1.7104 -7.44622,2.85363 -5.10717,2.41079 -9.78144,5.65083 -13.83108,9.58723 -0.25282,0.24511 -0.50316,0.49288 -0.75086,0.74314 l -0.0466,0.0543 v 13.83105 1.40078 13.22771 7.31441 7.31409 13.22772 1.40079 13.83072 0.0408 0.75695 14.05315 0.57567 h 7.31443 7.31411 v -0.54546 -4.49613 -9.58723 -0.74442 -6.75224 -7.13183 -1.26258 -13.36593 h 1.40078 11.96519 1.26257 7.31283 0.006 6.5655 0.74443 13.36566 0.71742 0.54546 v 14.62851 7.3009 7.32759 9.68012 4.9487 h 14.62855 v -14.62882 -0.75631 -13.87218 -14.62851 -7.31408 -7.31441 -14.6285 -13.87219 c -0.24936,-0.25469 -0.50153,-0.50686 -0.75624,-0.75631 -4.05495,-3.97314 -8.74393,-7.24513 -13.87221,-9.68013 -4.62804,-2.19078 -9.56015,-3.67536 -14.62855,-4.40321 -2.42169,-0.35631 -4.86665,-0.53852 -7.31443,-0.54514 z m 0,14.6285 c 2.45173,0.002 4.89792,0.25011 7.29997,0.74121 l 0.0145,0.003 c 5.30272,1.08461 10.30011,3.33355 14.62855,6.58316 v 7.30091 14.6285 h -0.54548 -0.71744 -13.36565 -0.74443 -6.57001 -7.31443 -1.26257 -11.96518 -1.40079 v -13.36593 -1.26257 -7.13184 c 2.27401,-1.75139 4.74696,-3.22935 7.3665,-4.40259 2.33238,-1.02987 4.76675,-1.8132 7.26204,-2.33678 2.40623,-0.49747 4.85732,-0.75124 7.31443,-0.75728 z"
       style="display:inline;vector-effect:non-scaling-stroke;fill:url(#linearGradient79);fill-opacity:1;stroke:none;stroke-width:0.329143;stroke-opacity:1;-inkscape-stroke:hairline"
       id="path2-1" />
    <path
       d="m 168.22868,153.59996 c -2.44854,0.0167 -4.89343,0.20915 -7.31444,0.57568 -5.07177,0.74763 -10.0039,2.25325 -14.62854,4.46562 v 9.58724 7.49669 7.13186 14.62854 7.31443 7.31412 14.62854 7.13186 7.49668 9.58726 5.04161 h 14.62854 v -0.57568 -14.05319 -0.75696 -0.0408 l 0.0472,0.0553 c 0.24761,0.25006 0.49782,0.49759 0.75053,0.74249 4.0498,3.93663 8.72341,7.17629 13.83076,9.58726 2.40386,1.1433 4.89336,2.09744 7.44559,2.85364 2.3525,0.70908 4.75308,1.24791 7.18296,1.61229 2.42121,0.36656 4.86569,0.55895 7.31443,0.57568 2.44803,-0.007 4.8925,-0.18902 7.31443,-0.54547 5.06891,-0.72792 10.00004,-2.21221 14.62855,-4.40325 v -9.68015 -7.32761 c -4.32887,3.24994 -9.32529,5.49845 -14.62855,6.58319 l -0.0141,0.003 c -2.39926,0.49054 -4.84174,0.73886 -7.29064,0.74121 l -0.01,2.9e-4 -0.003,-2.9e-4 c -2.45629,-0.006 -4.9058,-0.25997 -7.31122,-0.75728 -2.49547,-0.52364 -4.92949,-1.30684 -7.26203,-2.33679 -2.61973,-1.17332 -5.09236,-2.6511 -7.36652,-4.40261 -2.69518,-2.03642 -5.09543,-4.43668 -7.13187,-7.13186 h -0.17453 l -0.008,2.9e-4 -0.003,-2.9e-4 h 0.0106 c 0.0564,-0.002 0.11273,-0.004 0.16908,-0.007 -3.30276,-4.31301 -5.60338,-9.30815 -6.73426,-14.62147 h 6.55586 0.006 7.30961 1.40079 11.96518 1.26258 7.31283 0.006 6.5655 0.74442 13.36566 c 0.83318,-2.34847 1.26031,-4.82223 1.26289,-7.31412 -0.007,-2.44789 -0.18903,-4.8926 -0.54547,-7.31443 -0.72788,-5.06862 -2.21233,-10.00029 -4.40325,-14.62854 -2.43497,-5.12842 -5.70667,-9.81712 -9.67983,-13.87222 l -0.0145,-0.0152 c -0.24472,-0.24957 -0.49206,-0.49669 -0.74185,-0.74121 -4.05485,-3.97324 -8.74379,-7.24513 -13.87227,-9.68015 -2.32125,-1.09899 -4.72259,-2.02203 -7.18233,-2.76075 -2.43757,-0.73176 -4.92699,-1.28088 -7.44622,-1.6425 -2.42172,-0.35652 -4.86651,-0.53873 -7.3142,-0.54537 z m 0,14.62854 c 2.45664,0.002 4.90747,0.25128 7.31411,0.74444 2.53142,0.52066 5.00112,1.3084 7.3665,2.34964 2.57513,1.12717 5.01229,2.54785 7.26204,4.23322 2.76647,2.07606 5.22499,4.53468 7.30093,7.30125 h 0.0135 l -0.0122,8.6e-4 c 3.24923,4.32829 5.49766,9.32485 6.58222,14.62725 h -6.57 -7.31444 -1.26257 -11.96518 -1.40079 -7.31411 -6.55714 -0.75729 v -13.22776 -1.40079 -13.83107 -0.0402 l 0.0466,-0.0141 c 2.3915,-0.48964 4.82672,-0.73864 7.26782,-0.74315 z"
       style="display:inline;vector-effect:non-scaling-stroke;fill:url(#linearGradient80);stroke:none;stroke-width:0.329144;stroke-opacity:1;-inkscape-stroke:hairline"
       id="path3" />
    <path
       d="m 95.085784,255.9997 c -2.448531,0.0167 -4.893411,0.20916 -7.314411,0.57568 -5.071758,0.74763 -10.003882,2.25324 -14.628507,4.4656 v 9.58721 7.49666 7.13184 14.62849 7.31441 7.3141 14.62849 7.13183 7.49666 9.58722 5.04159 h 14.628507 v -0.57568 -14.05313 -0.75697 -0.0408 l 0.04723,0.0553 c 0.247613,0.25006 0.497814,0.49759 0.750526,0.74249 4.049791,3.93661 8.723388,7.17627 13.830731,9.58722 2.40384,1.14331 4.89334,2.09744 7.44556,2.85364 2.3525,0.70908 4.75307,1.2479 7.18294,1.61228 2.42121,0.36656 4.86568,0.55895 7.31442,0.57568 2.44802,-0.007 4.89248,-0.18902 7.31441,-0.54546 5.0689,-0.72792 10.00001,-2.21221 14.62851,-4.40325 v -9.68011 -7.32758 c -4.32886,3.24992 -9.32527,5.49843 -14.62851,6.58316 l -0.0142,0.003 c -2.39925,0.49054 -4.84172,0.73887 -7.29061,0.74122 l -0.01,2.8e-4 -0.003,-2.8e-4 c -2.45629,-0.006 -4.90579,-0.25998 -7.31121,-0.75729 -2.49546,-0.52363 -4.92948,-1.30683 -7.26201,-2.33678 -2.61972,-1.17331 -5.09234,-2.65109 -7.3665,-4.40259 -2.695167,-2.03641 -5.095416,-4.43667 -7.131849,-7.13183 h -0.174532 l -0.0077,2.8e-4 -0.0026,-2.8e-4 h 0.01063 c 0.0564,-0.002 0.112723,-0.004 0.169072,-0.007 -3.302746,-4.31301 -5.60336,-9.30813 -6.734235,-14.62142 h 6.555837 0.006 7.309597 1.40079 11.96515 1.26258 7.31281 0.006 6.56548 0.74442 13.36562 c 0.83318,-2.34846 1.26031,-4.82222 1.26289,-7.3141 -0.007,-2.44789 -0.18903,-4.89259 -0.54547,-7.31441 -0.72788,-5.0686 -2.21233,-10.00026 -4.40324,-14.62848 -2.43496,-5.12841 -5.70666,-9.81709 -9.6798,-13.87217 l -0.0145,-0.0152 c -0.24472,-0.24957 -0.49205,-0.49669 -0.74184,-0.74121 -4.05484,-3.97322 -8.74377,-7.24511 -13.87223,-9.68011 -2.32125,-1.099 -4.72258,-2.02203 -7.18232,-2.76075 -2.43756,-0.73175 -4.92698,-1.28087 -7.44619,-1.64249 -2.421728,-0.35652 -4.866505,-0.53873 -7.314197,-0.54536 z m 0,14.62849 c 2.456641,0.002 4.907461,0.25128 7.314096,0.74444 2.53141,0.52066 5.00111,1.30839 7.36648,2.34964 2.57513,1.12715 5.01228,2.54784 7.26203,4.23319 2.76646,2.07605 5.22497,4.53467 7.30091,7.30123 h 0.0135 l -0.0122,8.6e-4 c 3.24923,4.32828 5.49765,9.32482 6.58221,14.6272 h -6.56998 -7.31442 -1.26257 -11.96515 -1.40079 -7.314096 -6.557123 -0.75728 v -13.22771 -1.40079 -13.83102 -0.0402 l 0.04663,-0.0142 c 2.391497,-0.48963 4.8267,-0.73863 7.2678,-0.74314 z"
       style="display:inline;vector-effect:non-scaling-stroke;fill:url(#linearGradient81);fill-opacity:1;stroke:none;stroke-width:0.329142;stroke-opacity:1;-inkscape-stroke:hairline"
       id="path3-6" />
    <path
       d="m 241.37151,153.59996 c -2.44859,0.0167 -4.89337,0.20914 -7.31444,0.57568 -5.07182,0.74763 -10.00385,2.25322 -14.62854,4.46561 v 9.58725 7.49669 7.13186 14.62854 7.31443 7.31411 14.62855 7.13186 7.49668 9.58726 c 4.62471,2.21252 9.55666,3.71818 14.62854,4.46593 2.42123,0.36656 4.86569,0.55896 7.31444,0.57568 2.44792,-0.007 4.89227,-0.18903 7.31411,-0.54546 2.51921,-0.36168 5.00802,-0.91072 7.44557,-1.64251 2.46015,-0.73875 4.86133,-1.66163 7.18297,-2.76075 5.1288,-2.43516 9.81718,-5.70667 13.87254,-9.68015 0.24992,-0.24452 0.49734,-0.49162 0.74219,-0.74121 l 0.0141,-0.0152 c 3.97331,-4.05526 7.24475,-8.7436 9.67983,-13.87222 2.19098,-4.62838 3.67534,-9.55977 4.40326,-14.62855 0.35642,-2.42176 0.53871,-4.86625 0.54546,-7.31411 -0.007,-2.44795 -0.18903,-4.89256 -0.54546,-7.31443 -0.72791,-5.06868 -2.21232,-10.0002 -4.40326,-14.62851 -2.43506,-5.12854 -5.70662,-9.81704 -9.67986,-13.87223 l -0.0145,-0.0152 c -0.24467,-0.24959 -0.49201,-0.49669 -0.74181,-0.74121 -4.05523,-3.97335 -8.7439,-7.24508 -13.87254,-9.68015 -2.3213,-1.09904 -4.72252,-2.02201 -7.18232,-2.76076 -2.43764,-0.73177 -4.92693,-1.28087 -7.44622,-1.6425 -2.42168,-0.35623 -4.86634,-0.53843 -7.31409,-0.54506 z m 0,14.62854 c 2.45669,0.002 4.90743,0.25127 7.31411,0.74443 2.53147,0.52068 5.00108,1.30839 7.3665,2.34965 2.57519,1.12719 5.01225,2.54782 7.26204,4.23322 2.76654,2.07609 5.22495,4.53463 7.30094,7.30125 h 0.0135 l -0.0122,8.6e-4 c 3.2493,4.3284 5.49763,9.32473 6.58221,14.62726 h -6.57 -7.31443 -1.26257 -11.96519 -1.40079 -7.3141 -6.55715 -0.75729 v -13.22776 -1.4008 -13.83107 -0.0402 l 0.0466,-0.0141 c 2.39156,-0.48964 4.82666,-0.73863 7.26783,-0.74314 z m -7.31444,43.88563 h 0.75697 6.55586 0.006 7.30961 1.40079 11.96519 1.26257 7.31283 0.006 6.56549 c -1.08465,5.30276 -3.33301,10.29904 -6.58253,14.62759 l 0.01,5.7e-4 h 0.0106 l -0.008,2.9e-4 -0.003,-2.9e-4 h -0.0106 c -2.07605,2.76669 -4.53432,5.22509 -7.30093,7.30125 -2.2499,1.68548 -4.68675,3.10596 -7.26204,4.23321 -2.36554,1.04131 -4.83492,1.82896 -7.36651,2.34965 -2.40367,0.49255 -4.85085,0.74195 -7.30447,0.74443 l -0.01,2.9e-4 -0.003,-2.9e-4 c -2.44003,-0.004 -4.87349,-0.2533 -7.26397,-0.7425 l -0.0472,-0.0145 v -0.0408 -13.83076 -1.40079 z"
       style="display:inline;vector-effect:non-scaling-stroke;fill:url(#linearGradient82);stroke:none;stroke-width:0.329144;stroke-opacity:1;-inkscape-stroke:hairline"
       id="path4" />
    <path
       d="m 329.14288,153.59997 c -2.44872,0.0167 -4.89324,0.20912 -7.31443,0.57568 -2.42964,0.3643 -4.83004,0.90303 -7.18232,1.61197 -2.55243,0.75616 -5.04217,1.71032 -7.44622,2.85365 -5.10756,2.41097 -9.78112,5.65053 -13.83108,9.58725 -0.25283,0.24512 -0.50314,0.49285 -0.75086,0.74314 l -0.0466,0.0543 v 13.83106 1.4008 13.22775 7.31443 7.31411 13.22776 1.40079 13.83076 l 0.0472,0.0553 c 0.24762,0.25006 0.49782,0.4976 0.75054,0.7425 4.04976,3.93658 8.72345,7.17631 13.83075,9.58724 2.40381,1.14328 4.89341,2.09747 7.44558,2.85366 2.35244,0.70906 4.75315,1.24792 7.18296,1.61228 2.42111,0.36655 4.8658,0.55896 7.31444,0.57568 2.44792,-0.007 4.8926,-0.18903 7.31443,-0.54546 5.06867,-0.72789 10.00025,-2.21232 14.62854,-4.40326 5.12879,-2.43524 9.81688,-5.70661 13.87222,-9.68014 0.25474,-0.24946 0.50687,-0.50159 0.75633,-0.75633 v -13.87222 -14.62855 -7.31411 -7.31443 -14.62854 -13.87222 c -0.24946,-0.25473 -0.5016,-0.50687 -0.75633,-0.75632 -4.05523,-3.97346 -8.74348,-7.24496 -13.87218,-9.68015 -4.62849,-2.19103 -9.55964,-3.67533 -14.62854,-4.40326 -2.42193,-0.35633 -4.86643,-0.53852 -7.31443,-0.54514 z m 0,14.62855 c 2.45198,0.002 4.89768,0.25005 7.29997,0.74121 l 0.0145,0.003 c 5.30322,1.08472 10.2997,3.33325 14.62854,6.58318 v 7.30093 14.62854 7.31444 7.31412 14.62854 7.30093 c -4.3287,3.24982 -9.3255,5.49849 -14.62854,6.58318 l -0.0141,0.003 c -2.39916,0.49052 -4.84188,0.73886 -7.29066,0.74122 l -0.01,2.9e-4 -0.003,-2.9e-4 c -2.45621,-0.006 -4.90586,-0.25999 -7.31122,-0.75729 -2.49541,-0.52361 -4.92954,-1.30686 -7.26204,-2.33678 -2.61969,-1.1733 -5.09238,-2.65111 -7.36651,-4.4026 v -7.1318 -1.26258 -13.36597 -7.31412 -7.31442 -13.36598 -1.26256 -7.13187 c 2.27416,-1.75151 4.74679,-3.22928 7.36651,-4.40261 2.33253,-1.02993 4.76658,-1.81316 7.26204,-2.33678 2.40643,-0.49752 4.8571,-0.75124 7.31443,-0.75729 z"
       style="display:inline;vector-effect:non-scaling-stroke;fill:url(#linearGradient83);stroke:none;stroke-width:0.329142;stroke-opacity:1;-inkscape-stroke:hairline"
       id="path5" />
    <path
       d="m 402.28572,153.59996 c -2.44866,0.0167 -4.89331,0.20913 -7.31444,0.57568 -2.42956,0.36428 -4.8301,0.90305 -7.18233,1.61196 -2.55234,0.75614 -5.04224,1.71037 -7.44621,2.85365 -5.10731,2.41087 -9.78131,5.65072 -13.83108,9.58725 -0.25282,0.24511 -0.50314,0.49287 -0.75086,0.74315 l -0.0466,0.0543 v 13.83107 1.40079 13.22776 7.31442 7.31412 13.22775 1.4008 13.83074 0.0408 0.75696 14.05319 0.57568 h 7.31443 7.31411 v -0.54547 -4.49615 -9.58725 -0.74443 -6.75226 -7.13185 -1.26258 -13.36596 -7.31412 -7.31443 -13.36597 -1.26257 -7.13186 c 2.2741,-1.75147 4.74687,-3.22932 7.36651,-4.40261 2.33247,-1.02991 4.76665,-1.81318 7.26203,-2.33679 v 6.57001 7.30125 1.40079 13.22775 7.30672 l 2.9e-4,0.008 -2.9e-4,0.008 v 7.3064 13.22776 1.40078 7.30125 6.57001 0.75728 9.68015 4.37304 c 2.42114,0.36654 4.86577,0.55895 7.31444,0.57568 2.44794,-0.007 4.89257,-0.18903 7.31443,-0.54547 5.06889,-0.72792 10.00006,-2.21222 14.62854,-4.40325 5.12874,-2.43522 9.81691,-5.70666 13.87222,-9.68015 0.25473,-0.24946 0.50687,-0.50159 0.75633,-0.75632 v -13.87219 -14.62854 -7.31412 -7.31443 -14.62854 -13.87222 -0.75632 -14.62854 h -14.62858 v 4.94839 9.68015 7.32761 7.30093 14.62854 7.31443 7.31412 14.62854 7.30093 c -4.32884,3.24993 -9.3253,5.49846 -14.62854,6.58319 l -0.0141,0.003 0.0141,-0.0152 v -13.87218 -1.26257 -13.36598 -7.3141 -7.31444 -13.36597 -1.26257 -13.87221 -0.0119 -0.74443 -14.0834 c -2.42184,-0.35651 -4.86648,-0.5387 -7.3144,-0.54532 z"
       style="display:inline;vector-effect:non-scaling-stroke;fill:url(#linearGradient84);fill-opacity:1;stroke:none;stroke-width:0.164572;-inkscape-stroke:hairline"
       id="path6" />
    <path
       d="m 146.2857,255.9997 v 0.57568 14.05281 0.75729 0.0402 13.83104 1.40077 13.22772 7.3144 7.31409 13.22771 1.40078 13.83071 l 0.0472,0.0553 c 0.2476,0.25006 0.49782,0.4976 0.75053,0.7425 4.04968,3.93649 8.72355,7.17634 13.83076,9.58721 2.40376,1.14326 4.89346,2.09747 7.44558,2.85365 2.35239,0.70904 4.7532,1.24792 7.18296,1.61227 2.42106,0.36654 4.86583,0.55895 7.31443,0.57568 2.44788,-0.007 4.89264,-0.18904 7.31444,-0.54546 5.06856,-0.72787 10.00037,-2.21236 14.62854,-4.40324 5.12841,-2.43505 9.81717,-5.70689 13.87222,-9.68011 0.25472,-0.24945 0.50688,-0.50161 0.75632,-0.75633 v -13.87219 -14.6285 -7.31409 -7.3144 -14.62849 -13.87218 -0.75632 -14.62849 h -14.62854 v 4.94838 9.68011 7.32759 7.30091 14.62849 7.3144 7.31409 14.6285 7.3009 c -4.32857,3.24972 -9.32564,5.49851 -14.62854,6.58316 l -0.0141,0.003 c -2.39911,0.49052 -4.84191,0.73887 -7.29064,0.74122 l -0.01,2.8e-4 -0.003,-2.8e-4 c -2.45616,-0.006 -4.90592,-0.26 -7.31123,-0.75728 -2.49536,-0.5236 -4.92958,-1.30688 -7.26203,-2.33678 -2.61966,-1.17328 -5.09242,-2.65114 -7.36652,-4.40259 v -7.13183 -1.26256 -13.36593 -7.31409 -7.31441 -13.36592 -1.26257 -7.13183 -6.75223 -0.74443 -9.58745 -4.49612 -0.54515 h -7.31417 z"
       style="display:inline;vector-effect:non-scaling-stroke;fill:url(#linearGradient85);fill-opacity:1;stroke:none;stroke-width:0.329143;stroke-opacity:1;-inkscape-stroke:hairline"
       id="path8" />
    <path
       d="m 256.00005,255.99974 c -2.44849,0.0167 -4.89347,0.20915 -7.31444,0.57567 v 4.37271 9.68012 0.75728 6.56998 7.30122 1.40079 13.2277 7.3067 l 3e-4,0.008 -3e-4,0.008 v 7.30638 13.22771 1.40078 7.30123 6.56998 c -2.49542,-0.52362 -4.92953,-1.30687 -7.26203,-2.33679 -2.61968,-1.17329 -5.09238,-2.65111 -7.36651,-4.4026 v -7.13182 -1.26258 -13.36592 -7.31409 -7.31441 h -7.31411 -6.55714 -0.75729 v 7.31441 7.31409 13.22771 1.40079 13.8307 l 0.0472,0.0553 c 0.24762,0.25006 0.49782,0.49759 0.75054,0.74249 4.04978,3.93658 8.72344,7.17628 13.83076,9.58722 2.4038,1.14328 4.89342,2.09746 7.44558,2.85364 2.35243,0.70905 4.75316,1.24792 7.18296,1.61228 2.42112,0.36654 4.86578,0.55895 7.31443,0.57568 2.44793,-0.007 4.89259,-0.18903 7.31443,-0.54547 v -14.08335 -0.74442 -0.0119 -13.87217 -1.26256 -13.36595 -7.31409 -7.31442 -13.36591 -1.26258 -13.87216 -0.0119 c 5.30273,1.08461 10.30013,3.33356 14.62854,6.58315 v 7.30092 14.62848 7.31442 7.31408 h 13.88412 0.74443 v -7.31408 -7.31442 -14.62848 -13.87217 c -0.24944,-0.25471 -0.50162,-0.50689 -0.75633,-0.75633 -4.05493,-3.97311 -8.74392,-7.24513 -13.8722,-9.68011 -4.628,-2.1908 -9.56018,-3.6754 -14.62854,-4.40324 -2.42169,-0.35627 -4.86668,-0.53849 -7.31443,-0.54511 z"
       style="display:inline;vector-effect:non-scaling-stroke;fill:url(#linearGradient86);fill-opacity:1;stroke:none;stroke-width:0.329141;stroke-opacity:1;-inkscape-stroke:hairline"
       id="path9" />
    <path
       d="m 387.65711,255.99976 c -2.44865,0.0167 -4.8933,0.20912 -7.31442,0.57567 -5.07203,0.74767 -10.00362,2.25313 -14.62849,4.46561 v 9.58726 7.49668 7.13187 14.62854 7.31442 7.31412 14.62855 7.13185 7.49669 9.58725 c 4.6249,2.21262 9.55639,3.71815 14.62849,4.46594 2.42106,0.36654 4.86583,0.55895 7.31442,0.57567 2.44776,-0.007 4.89241,-0.18905 7.31409,-0.54546 2.51903,-0.36166 5.00815,-0.91077 7.44555,-1.6425 2.45999,-0.7387 4.86146,-1.66171 7.18295,-2.76076 5.12847,-2.43501 9.81739,-5.7069 13.87249,-9.68014 0.24991,-0.24451 0.49735,-0.49164 0.74219,-0.74121 l 0.0141,-0.0152 c 3.97307,-4.05505 7.24487,-8.74389 9.6798,-13.87222 2.19083,-4.62808 3.67538,-9.56012 4.40325,-14.62855 0.3564,-2.42161 0.53871,-4.86642 0.54546,-7.31412 -0.007,-2.44776 -0.18906,-4.89274 -0.54546,-7.31442 -0.72786,-5.06839 -2.21244,-10.00052 -4.40325,-14.62854 -2.43487,-5.12824 -5.7068,-9.81727 -9.6798,-13.87223 l -0.0145,-0.0152 c -0.24474,-0.24958 -0.49207,-0.49669 -0.74186,-0.7412 -4.05519,-3.97333 -8.74393,-7.2451 -13.8725,-9.68016 -2.32133,-1.09904 -4.72248,-2.02199 -7.18231,-2.76075 -2.43769,-0.73179 -4.92685,-1.28086 -7.44619,-1.6425 -2.42172,-0.35624 -4.86626,-0.53843 -7.31407,-0.54507 z m 0,14.62854 c 2.45672,0.002 4.90738,0.25126 7.31409,0.74443 2.53148,0.52067 5.00105,1.30837 7.36648,2.34964 2.57518,1.1272 5.01223,2.54782 7.26202,4.23322 2.76639,2.076 5.22503,4.53476 7.30092,7.30126 h 0.0135 l -0.0122,8.5e-4 c 3.24908,4.32815 5.49768,9.32505 6.58218,14.62727 0.49317,2.4067 0.74262,4.85771 0.74443,7.31442 -0.003,2.45662 -0.25128,4.90751 -0.74443,7.31411 -1.08456,5.30241 -3.33322,10.29933 -6.58251,14.62759 l 0.01,5.7e-4 h 0.0106 l -0.008,2.8e-4 -0.003,-2.8e-4 h -0.0106 c -2.07592,2.76653 -4.53448,5.22521 -7.30092,7.30125 -2.24974,1.68537 -4.68687,3.10604 -7.26202,4.23322 -2.36538,1.04124 -4.83505,1.82898 -7.36648,2.34964 -2.40351,0.49252 -4.85099,0.74195 -7.30445,0.74443 l -0.01,2.9e-4 -0.003,-2.9e-4 c -2.43994,-0.004 -4.87356,-0.25332 -7.26396,-0.7425 l -0.0472,-0.0145 v -0.0408 -13.83076 -1.40078 -13.22776 -14.62855 -13.22775 -1.40079 -13.83108 -0.0402 l 0.0466,-0.0141 c 2.39161,-0.48965 4.82659,-0.73864 7.2678,-0.74314 z"
       style="display:inline;vector-effect:non-scaling-stroke;fill:url(#linearGradient103);fill-opacity:1;stroke:none;stroke-width:0.329143;stroke-opacity:1;-inkscape-stroke:hairline"
       id="path11" />
    <path
       d="m 490.05711,255.9997 c -2.44848,0.0167 -4.89347,0.20916 -7.31443,0.57568 -2.42941,0.36427 -4.83025,0.9031 -7.18233,1.61197 -2.55219,0.75609 -5.04237,1.71042 -7.44621,2.85363 -5.10708,2.41074 -9.7815,5.65088 -13.83108,9.58722 -0.25281,0.2451 -0.50315,0.49288 -0.75086,0.74314 l -0.0466,0.0543 c -3.93642,4.04962 -7.17646,8.72387 -9.58725,13.83102 -2.21238,4.62466 -3.71798,9.55669 -4.46561,14.62849 -0.36654,2.42103 -0.55896,4.86584 -0.57568,7.31441 0.0167,2.44847 0.20915,4.89316 0.57568,7.3141 0.74764,5.07186 2.2532,10.00376 4.46561,14.62848 2.41086,5.10711 5.65081,9.78112 9.58725,13.83072 l 0.0472,0.0553 c 0.2476,0.25005 0.49783,0.4976 0.75053,0.7425 4.04966,3.93646 8.72359,7.17635 13.83076,9.58721 2.40376,1.14325 4.89347,2.09747 7.44558,2.85365 2.35239,0.70904 4.7532,1.24792 7.18296,1.61227 2.42111,0.36655 4.86581,0.55895 7.31444,0.57568 2.44791,-0.007 4.89261,-0.18904 7.31443,-0.54546 5.06872,-0.7279 10.00021,-2.21229 14.62855,-4.40324 v -9.68011 -7.3276 c -4.3287,3.24981 -9.3255,5.49849 -14.62855,6.58317 l -0.0141,0.003 c -2.39915,0.49053 -4.84187,0.73887 -7.29065,0.74122 l -0.01,2.8e-4 -0.003,-2.8e-4 c -2.4562,-0.006 -4.90589,-0.26 -7.31122,-0.75729 -2.49536,-0.52361 -4.92959,-1.30689 -7.26204,-2.33678 -2.61962,-1.17327 -5.09245,-2.65115 -7.36652,-4.4026 -2.69509,-2.03634 -5.0955,-4.43675 -7.13185,-7.13182 h -0.17457 l -0.008,2.8e-4 -0.003,-2.8e-4 h 0.0106 c 0.0563,-0.003 0.11273,-0.004 0.16907,-0.007 -3.30264,-4.31285 -5.60341,-9.3083 -6.73426,-14.62142 h 6.55587 0.006 7.30961 1.40079 11.96518 1.26258 7.31282 0.006 6.5655 0.74442 13.36566 0.71743 0.54544 v -7.31434 -7.31441 h -0.54545 -0.71744 -13.36564 -0.74443 -6.57 -7.31444 -1.26257 -11.96524 -1.40079 -7.31411 -6.55714 c 1.13066,-5.31283 3.43131,-10.30839 6.73361,-14.6211 -0.0588,-0.003 -0.11765,-0.005 -0.17647,-0.008 h 0.18225 c 2.03627,-2.69498 4.43688,-5.09558 7.13186,-7.13185 2.27397,-1.75136 4.747,-3.22937 7.36651,-4.4026 2.33234,-1.02984 4.76679,-1.8132 7.26203,-2.33677 2.40626,-0.49748 4.85731,-0.75125 7.31444,-0.75729 2.45178,0.002 4.89787,0.25009 7.29997,0.74121 l 0.0145,0.003 c 5.30276,1.08462 10.3001,3.33354 14.62855,6.58316 v -7.32758 -9.68012 c -4.62793,-2.1908 -9.55997,-3.67535 -14.6284,-4.4032 -2.4217,-0.35631 -4.86668,-0.53853 -7.31443,-0.54515 z"
       style="display:inline;vector-effect:non-scaling-stroke;fill:url(#linearGradient88);fill-opacity:1;stroke:none;stroke-width:0.329143;stroke-opacity:1;-inkscape-stroke:hairline"
       id="path12" />
  </g>
  <g
     id="g143"
     style="display:none"
     transform="translate(-4.2987041,-102.98486)">
    <g
       id="g144"
       style="fill:#000000;fill-opacity:1;fill-rule:nonzero;stroke:none;stroke-width:2;stroke-linecap:butt;stroke-linejoin:round;stroke-dasharray:none;stroke-dashoffset:0;stroke-opacity:1;paint-order:normal">
      <path
         d="m 51.2001,153.59991 c -2.448684,0.0167 -4.893274,0.20913 -7.31443,0.57567 -2.429563,0.36428 -4.830119,0.90305 -7.182327,1.61195 -2.552344,0.75613 -5.042241,1.71035 -7.446218,2.85362 -5.107348,2.41085 -9.781284,5.65065 -13.831081,9.58716 -0.252824,0.24512 -0.503143,0.49287 -0.750856,0.74315 l -0.04661,0.0543 c -3.936597,4.04978 -7.1763537,8.72356 -9.5872558,13.83093 -2.2124946,4.62486 -3.7179357,9.55638 -4.46561025,14.6284 -0.36655714,2.42116 -0.55895212,4.86567 -0.575677949701,7.31436 0.0167385497,2.44862 0.209130619701,4.89296 0.575677949701,7.31404 0.74769265,5.07215 2.25306275,10.00344 4.46561025,14.62841 2.4110015,5.10739 5.6505788,9.78082 9.5872558,13.83064 l 0.04725,0.0553 c 0.24762,0.25006 0.497813,0.49758 0.750535,0.74249 4.049887,3.93668 8.72329,7.17617 13.83076,9.58717 2.403864,1.14329 4.893349,2.09741 7.445576,2.85361 2.352493,0.70906 4.753105,1.24791 7.182972,1.61227 2.421171,0.36656 4.865722,0.55895 7.314429,0.57567 2.447983,-0.007 4.89253,-0.18902 7.314434,-0.54545 5.068805,-0.72791 10.000135,-2.21224 14.628539,-4.40321 v -9.68006 -7.32755 c -4.328763,3.24986 -9.325395,5.49843 -14.628539,6.58312 l -0.01412,0.003 c -2.399219,0.49053 -4.8418,0.73886 -7.290655,0.74121 l -0.0096,2.9e-4 -0.0032,-2.9e-4 c -2.456299,-0.006 -4.90579,-0.25998 -7.311221,-0.75728 -2.495491,-0.52363 -4.929472,-1.30682 -7.262041,-2.33676 -2.619755,-1.17332 -5.092334,-2.65106 -7.366516,-4.40256 -2.695244,-2.03646 -5.095388,-4.43658 -7.131862,-7.13181 h -0.174541 l -0.0077,2.9e-4 -0.0028,-2.9e-4 h 0.01061 c 0.05636,-0.003 0.112723,-0.005 0.169071,-0.007 -3.302874,-4.313 -5.603438,-9.30795 -6.734328,-14.6213 -0.497395,-2.40635 -0.751008,-4.85683 -0.756966,-7.31404 0.006,-2.45731 0.259767,-4.90793 0.757285,-7.31436 1.130729,-5.31311 3.431132,-10.30807 6.733613,-14.62101 -0.05881,-0.003 -0.117637,-0.005 -0.176465,-0.008 h 0.18225 c 2.036394,-2.69511 4.436727,-5.09544 7.131861,-7.13181 2.27411,-1.75145 4.746846,-3.22927 7.366507,-4.40257 2.332472,-1.02989 4.766655,-1.81316 7.262041,-2.33675 2.406368,-0.49751 4.857179,-0.75125 7.314434,-0.75728 2.451939,0.003 4.897727,0.25005 7.299966,0.74121 l 0.01451,0.003 c 5.303093,1.08469 10.299817,3.33328 14.62854,6.58311 v -7.32745 -9.68006 c -4.628404,-2.19095 -9.559825,-3.67531 -14.62858,-4.40321 -2.421891,-0.35632 -4.866486,-0.53851 -7.314438,-0.54513 z"
         style="display:inline;fill:#000000;fill-opacity:1;fill-rule:nonzero;stroke:none;stroke-width:2;stroke-linecap:butt;stroke-linejoin:round;stroke-dasharray:none;stroke-dashoffset:0;stroke-opacity:1;paint-order:normal"
         id="path131" />
      <path
         d="m 109.71469,153.59896 c -2.4485,0.0167 -4.89346,0.20915 -7.31443,0.57568 -2.429472,0.36427 -4.830201,0.90308 -7.182329,1.61196 -2.552247,0.75612 -5.042333,1.7104 -7.446224,2.85365 -5.107161,2.41079 -9.781424,5.65084 -13.831075,9.58725 -0.252816,0.24511 -0.503155,0.49288 -0.750858,0.74315 l -0.0466,0.0543 v 13.83108 1.40079 13.22775 7.31443 7.31412 13.22775 1.40079 13.83077 0.0408 0.75696 14.05319 0.57567 h 7.314433 7.314116 v -0.54546 -4.49615 -9.58725 -0.74444 -6.75225 -7.13186 -1.26257 -13.36597 h 1.400782 11.965185 1.26257 7.31283 0.006 6.5655 0.74444 13.36564 0.71743 0.54547 v 14.62854 7.30093 7.32762 9.68014 4.94872 h 14.62855 v -14.62884 -0.75632 -13.87223 -14.62854 -7.31412 -7.31443 -14.62854 -13.87223 c -0.24937,-0.2547 -0.50154,-0.50687 -0.75625,-0.75632 -4.05495,-3.97314 -8.74393,-7.24514 -13.87221,-9.68015 -4.62804,-2.19079 -9.56015,-3.67538 -14.62855,-4.40322 -2.42171,-0.35632 -4.86666,-0.53853 -7.31443,-0.54515 z m 0,14.62854 c 2.45173,0.002 4.89792,0.25011 7.29997,0.74122 l 0.0145,0.003 c 5.30273,1.08461 10.30011,3.33356 14.62854,6.58318 v 7.30093 14.62855 h -0.54548 -0.71743 -13.36565 -0.74443 -6.57 -7.31443 -1.26258 -11.965184 -1.40079 v -13.36595 -1.26257 -7.13186 c 2.274008,-1.7514 4.746968,-3.22937 7.366509,-4.40261 2.332379,-1.02987 4.766742,-1.8132 7.262045,-2.33679 2.40622,-0.49747 4.85731,-0.75124 7.31443,-0.75728 z"
         style="display:inline;fill:#000000;fill-opacity:1;fill-rule:nonzero;stroke:none;stroke-width:2;stroke-linecap:butt;stroke-linejoin:round;stroke-dasharray:none;stroke-dashoffset:0;stroke-opacity:1;paint-order:normal"
         id="path133" />
      <path
         d="m 168.22868,153.59947 c -2.44854,0.0167 -4.89343,0.20915 -7.31444,0.57568 -5.07177,0.74762 -10.0039,2.25323 -14.62854,4.46559 v 9.58719 7.49664 7.13182 14.62846 7.31439 7.31408 14.62846 7.13182 7.49663 9.58721 5.04158 h 14.62854 v -0.57568 -14.05311 -0.75695 -0.0408 l 0.0472,0.0553 c 0.24761,0.25006 0.49782,0.49758 0.75053,0.74248 4.0498,3.93661 8.72341,7.17625 13.83076,9.58721 2.40386,1.14329 4.89336,2.09743 7.44559,2.85362 2.3525,0.70908 4.75308,1.24791 7.18296,1.61228 2.42121,0.36656 4.86569,0.55895 7.31443,0.57568 2.44803,-0.007 4.8925,-0.18902 7.31443,-0.54547 5.06891,-0.72791 10.00004,-2.21219 14.62855,-4.40322 v -9.6801 -7.32757 c -4.32887,3.24993 -9.32529,5.49842 -14.62855,6.58316 l -0.0141,0.003 c -2.39926,0.49053 -4.84174,0.73885 -7.29064,0.7412 l -0.01,2.9e-4 -0.003,-2.9e-4 c -2.45629,-0.006 -4.9058,-0.25997 -7.31122,-0.75727 -2.49547,-0.52364 -4.92949,-1.30684 -7.26203,-2.33678 -2.61973,-1.17331 -5.09236,-2.65108 -7.36652,-4.40258 -2.69518,-2.03641 -5.09543,-4.43666 -7.13187,-7.13182 h -0.17453 l -0.008,2.9e-4 -0.003,-2.9e-4 h 0.0106 c 0.0564,-0.002 0.11273,-0.004 0.16908,-0.007 -3.30276,-4.31299 -5.60338,-9.3081 -6.73426,-14.62139 h 6.55586 0.006 7.30961 1.40079 11.96518 1.26258 7.31283 0.006 6.5655 0.74442 13.36566 c 0.83318,-2.34846 1.26031,-4.8222 1.26289,-7.31408 -0.007,-2.44788 -0.18903,-4.89257 -0.54547,-7.31439 -0.72788,-5.06859 -2.21233,-10.00023 -4.40325,-14.62846 -2.43497,-5.12839 -5.70667,-9.81706 -9.67983,-13.87214 l -0.0145,-0.0152 c -0.24472,-0.24957 -0.49206,-0.49668 -0.74185,-0.7412 -4.05485,-3.97322 -8.74379,-7.24509 -13.87227,-9.6801 -2.32125,-1.09898 -4.72259,-2.02202 -7.18233,-2.76073 -2.43757,-0.73176 -4.92699,-1.28088 -7.44622,-1.64249 -2.42172,-0.35652 -4.86651,-0.53873 -7.3142,-0.54537 z m 0,14.62846 c 2.45664,0.002 4.90747,0.25128 7.31411,0.74443 2.53142,0.52066 5.00112,1.3084 7.3665,2.34963 2.57513,1.12716 5.01229,2.54784 7.26204,4.2332 2.76647,2.07604 5.22499,4.53465 7.30093,7.3012 h 0.0135 l -0.0122,8.6e-4 c 3.24923,4.32827 5.49766,9.3248 6.58222,14.62717 h -6.57 -7.31444 -1.26257 -11.96518 -1.40079 -7.31411 -6.55714 -0.75729 v -13.22768 -1.40079 -13.83099 -0.0402 l 0.0466,-0.0141 c 2.3915,-0.48963 4.82672,-0.73863 7.26782,-0.74314 z"
         style="display:inline;fill:#000000;fill-opacity:1;fill-rule:nonzero;stroke:none;stroke-width:2;stroke-linecap:butt;stroke-linejoin:round;stroke-dasharray:none;stroke-dashoffset:0;stroke-opacity:1;paint-order:normal"
         id="path135" />
      <path
         d="m 241.37151,153.59892 c -2.44859,0.0167 -4.89337,0.20914 -7.31444,0.57568 -5.07182,0.74763 -10.00385,2.25322 -14.62854,4.46561 v 9.58725 7.49669 7.13186 14.62854 7.31443 7.31411 14.62855 7.13186 7.49668 9.58726 c 4.62471,2.21252 9.55666,3.71818 14.62854,4.46593 2.42123,0.36656 4.86569,0.55896 7.31444,0.57568 2.44792,-0.007 4.89227,-0.18903 7.31411,-0.54546 2.51921,-0.36168 5.00802,-0.91072 7.44557,-1.64251 2.46015,-0.73875 4.86133,-1.66163 7.18297,-2.76075 5.1288,-2.43516 9.81718,-5.70667 13.87254,-9.68015 0.24992,-0.24452 0.49734,-0.49162 0.74219,-0.74121 l 0.0141,-0.0152 c 3.97331,-4.05526 7.24475,-8.7436 9.67983,-13.87222 2.19098,-4.62838 3.67534,-9.55977 4.40326,-14.62855 0.35642,-2.42176 0.53871,-4.86625 0.54546,-7.31411 -0.007,-2.44795 -0.18903,-4.89256 -0.54546,-7.31443 -0.72791,-5.06868 -2.21232,-10.0002 -4.40326,-14.62851 -2.43506,-5.12854 -5.70662,-9.81704 -9.67986,-13.87223 l -0.0145,-0.0152 c -0.24467,-0.24959 -0.49201,-0.49669 -0.74181,-0.74121 -4.05523,-3.97335 -8.7439,-7.24508 -13.87254,-9.68015 -2.3213,-1.09904 -4.72252,-2.02201 -7.18232,-2.76076 -2.43764,-0.73177 -4.92693,-1.28087 -7.44622,-1.6425 -2.42168,-0.35623 -4.86634,-0.53843 -7.31409,-0.54506 z m 0,14.62854 c 2.45669,0.002 4.90743,0.25127 7.31411,0.74443 2.53147,0.52068 5.00108,1.30839 7.3665,2.34965 2.57519,1.12719 5.01225,2.54782 7.26204,4.23322 2.76654,2.07609 5.22495,4.53463 7.30094,7.30125 h 0.0135 l -0.0122,8.6e-4 c 3.2493,4.3284 5.49763,9.32473 6.58221,14.62726 h -6.57 -7.31443 -1.26257 -11.96519 -1.40079 -7.3141 -6.55715 -0.75729 v -13.22776 -1.4008 -13.83107 -0.0402 l 0.0466,-0.0141 c 2.39156,-0.48964 4.82666,-0.73863 7.26783,-0.74314 z m -7.31444,43.88563 h 0.75697 6.55586 0.006 7.30961 1.40079 11.96519 1.26257 7.31283 0.006 6.56549 c -1.08465,5.30276 -3.33301,10.29904 -6.58253,14.62759 l 0.01,5.7e-4 h 0.0106 l -0.008,2.9e-4 -0.003,-2.9e-4 h -0.0106 c -2.07605,2.76669 -4.53432,5.22509 -7.30093,7.30125 -2.2499,1.68548 -4.68675,3.10596 -7.26204,4.23321 -2.36554,1.04131 -4.83492,1.82896 -7.36651,2.34965 -2.40367,0.49255 -4.85085,0.74195 -7.30447,0.74443 l -0.01,2.9e-4 -0.003,-2.9e-4 c -2.44003,-0.004 -4.87349,-0.2533 -7.26397,-0.7425 l -0.0472,-0.0145 v -0.0408 -13.83076 -1.40079 z"
         style="display:inline;fill:#000000;fill-opacity:1;fill-rule:nonzero;stroke:none;stroke-width:2;stroke-linecap:butt;stroke-linejoin:round;stroke-dasharray:none;stroke-dashoffset:0;stroke-opacity:1;paint-order:normal"
         id="path137" />
      <path
         d="m 329.14288,153.59894 c -2.44872,0.0167 -4.89324,0.20912 -7.31443,0.57568 -2.42964,0.3643 -4.83004,0.90303 -7.18232,1.61197 -2.55243,0.75616 -5.04217,1.71032 -7.44622,2.85365 -5.10756,2.41097 -9.78112,5.65053 -13.83108,9.58725 -0.25283,0.24512 -0.50314,0.49285 -0.75086,0.74314 l -0.0466,0.0543 v 13.83106 1.4008 13.22775 7.31443 7.31411 13.22776 1.40079 13.83076 l 0.0472,0.0553 c 0.24762,0.25006 0.49782,0.4976 0.75054,0.7425 4.04976,3.93658 8.72345,7.17631 13.83075,9.58724 2.40381,1.14328 4.89341,2.09747 7.44558,2.85366 2.35244,0.70906 4.75315,1.24792 7.18296,1.61228 2.42111,0.36655 4.8658,0.55896 7.31444,0.57568 2.44792,-0.007 4.8926,-0.18903 7.31443,-0.54546 5.06867,-0.72789 10.00025,-2.21232 14.62854,-4.40326 5.12879,-2.43524 9.81688,-5.70661 13.87222,-9.68014 0.25474,-0.24946 0.50687,-0.50159 0.75633,-0.75633 v -13.87222 -14.62855 -7.31411 -7.31443 -14.62854 -13.87222 c -0.24946,-0.25473 -0.5016,-0.50687 -0.75633,-0.75632 -4.05523,-3.97346 -8.74348,-7.24496 -13.87218,-9.68015 -4.62849,-2.19103 -9.55964,-3.67533 -14.62854,-4.40326 -2.42193,-0.35633 -4.86643,-0.53852 -7.31443,-0.54514 z m 0,14.62855 c 2.45198,0.002 4.89768,0.25005 7.29997,0.74121 l 0.0145,0.003 c 5.30322,1.08472 10.2997,3.33325 14.62854,6.58318 v 7.30093 14.62854 7.31444 7.31412 14.62854 7.30093 c -4.3287,3.24982 -9.3255,5.49849 -14.62854,6.58318 l -0.0141,0.003 c -2.39916,0.49052 -4.84188,0.73886 -7.29066,0.74122 l -0.01,2.9e-4 -0.003,-2.9e-4 c -2.45621,-0.006 -4.90586,-0.25999 -7.31122,-0.75729 -2.49541,-0.52361 -4.92954,-1.30686 -7.26204,-2.33678 -2.61969,-1.1733 -5.09238,-2.65111 -7.36651,-4.4026 v -7.1318 -1.26258 -13.36597 -7.31412 -7.31442 -13.36598 -1.26256 -7.13187 c 2.27416,-1.75151 4.74679,-3.22928 7.36651,-4.40261 2.33253,-1.02993 4.76658,-1.81316 7.26204,-2.33678 2.40643,-0.49752 4.8571,-0.75124 7.31443,-0.75729 z"
         style="display:inline;fill:#000000;fill-opacity:1;fill-rule:nonzero;stroke:none;stroke-width:2;stroke-linecap:butt;stroke-linejoin:round;stroke-dasharray:none;stroke-dashoffset:0;stroke-opacity:1;paint-order:normal"
         id="path138" />
      <path
         d="m 402.28572,153.59905 c -2.44866,0.0167 -4.89331,0.20913 -7.31444,0.57568 -2.42956,0.36427 -4.8301,0.90304 -7.18233,1.61195 -2.55234,0.75613 -5.04224,1.71036 -7.44621,2.85363 -5.10731,2.41085 -9.78131,5.65068 -13.83108,9.58719 -0.25282,0.24511 -0.50314,0.49287 -0.75086,0.74314 l -0.0466,0.0543 v 13.83099 1.40078 13.22768 7.31437 7.31407 13.22767 1.40079 13.83066 0.0408 0.75695 14.0531 0.57568 h 7.31443 7.31411 v -0.54547 -4.49612 -9.58719 -0.74442 -6.75222 -7.13181 -1.26257 -13.36588 -7.31407 -7.31438 -13.36589 -1.26256 -7.13182 c 2.2741,-1.75146 4.74687,-3.2293 7.36651,-4.40258 2.33247,-1.0299 4.76665,-1.81317 7.26203,-2.33678 v 6.56997 7.30121 1.40078 13.22767 7.30667 l 2.9e-4,0.008 -2.9e-4,0.008 v 7.30635 13.22768 1.40077 7.30121 6.56997 0.75727 9.68009 4.37301 c 2.42114,0.36654 4.86577,0.55895 7.31444,0.57568 2.44794,-0.007 4.89257,-0.18903 7.31443,-0.54547 5.06889,-0.72791 10.00006,-2.2122 14.62854,-4.40322 5.12874,-2.4352 9.81691,-5.70662 13.87222,-9.68009 0.25473,-0.24946 0.50687,-0.50159 0.75633,-0.75631 v -13.87211 -14.62845 -7.31407 -7.31438 -14.62845 -13.87214 -0.75631 -14.62845 h -14.62858 v 4.94836 9.68009 7.32756 7.30089 14.62845 7.31438 7.31407 14.62845 7.30089 c -4.32884,3.24991 -9.3253,5.49842 -14.62854,6.58315 l -0.0141,0.003 0.0141,-0.0152 v -13.8721 -1.26256 -13.3659 -7.31405 -7.31439 -13.36589 -1.26256 -13.87213 -0.0119 -0.74442 -14.08331 c -2.42184,-0.35651 -4.86648,-0.5387 -7.3144,-0.54532 z"
         style="display:inline;fill:#000000;fill-opacity:1;fill-rule:nonzero;stroke:none;stroke-width:2;stroke-linecap:butt;stroke-linejoin:round;stroke-dasharray:none;stroke-dashoffset:0;stroke-opacity:1;paint-order:normal"
         id="path139" />
      <path
         d="m 51.200016,255.99996 c -2.448684,0.0167 -4.893274,0.20913 -7.31443,0.57567 -2.429563,0.36428 -4.830119,0.90304 -7.182327,1.61195 -2.552344,0.75613 -5.042241,1.71035 -7.446218,2.85362 -5.107348,2.41084 -9.781284,5.65064 -13.831081,9.58715 -0.252824,0.24512 -0.503143,0.49286 -0.750856,0.74314 l -0.04661,0.0543 c -3.936595,4.04978 -7.1763517,8.72356 -9.5872537,13.83092 -2.2124951,4.62486 -3.7179356,9.55636 -4.46561025,14.62839 -0.36655759,2.42115 -0.55895256,4.86567 -0.57567805,7.31435 0.01674006,2.44861 0.20913075,4.89296 0.57567805,7.31403 0.74769265,5.07215 2.25306285,10.00343 4.46561025,14.6284 2.4110014,5.10737 5.6505787,9.7808 9.5872557,13.83063 l 0.04725,0.0553 c 0.24762,0.25006 0.497813,0.49757 0.750535,0.74248 4.049887,3.93668 8.72329,7.17617 13.83076,9.58715 2.403864,1.1433 4.893349,2.09742 7.445576,2.85362 2.352493,0.70907 4.753105,1.24791 7.182972,1.61227 2.421171,0.36656 4.865722,0.55895 7.314429,0.57567 2.447983,-0.007 4.89253,-0.18902 7.314434,-0.54545 5.068805,-0.72791 10.000135,-2.21224 14.628539,-4.40322 v -9.68004 -7.32754 c -4.328763,3.24984 -9.325395,5.49843 -14.628539,6.58312 l -0.01412,0.003 c -2.399219,0.49052 -4.8418,0.73885 -7.290655,0.7412 l -0.0096,2.9e-4 -0.0032,-2.9e-4 c -2.456299,-0.006 -4.90579,-0.25998 -7.311221,-0.75727 -2.495491,-0.52364 -4.929472,-1.30683 -7.262041,-2.33677 -2.619755,-1.17332 -5.092334,-2.65105 -7.366516,-4.40256 -2.695244,-2.03646 -5.095388,-4.43657 -7.131862,-7.1318 h -0.174535 l -0.0077,3e-4 -0.0028,-3e-4 h 0.01061 c 0.05636,-0.003 0.112723,-0.005 0.169071,-0.007 -3.302874,-4.31298 -5.603438,-9.30794 -6.734328,-14.62129 -0.497395,-2.40634 -0.751008,-4.85683 -0.756966,-7.31403 0.006,-2.4573 0.259767,-4.90793 0.757285,-7.31435 1.130729,-5.3131 3.431132,-10.30807 6.733613,-14.621 -0.05881,-0.003 -0.117637,-0.005 -0.176465,-0.008 h 0.18225 c 2.036394,-2.69511 4.436727,-5.09543 7.131861,-7.1318 2.27411,-1.75146 4.746846,-3.22928 7.366507,-4.40256 2.332472,-1.02989 4.766655,-1.81316 7.262041,-2.33677 2.406368,-0.49749 4.857179,-0.75123 7.314434,-0.75727 2.451939,0.003 4.897727,0.25006 7.299966,0.7412 l 0.01451,0.003 c 5.303093,1.08469 10.299817,3.3333 14.62854,6.58311 v -7.32752 -9.68005 c -4.628364,-2.19095 -9.559785,-3.67531 -14.62854,-4.40321 -2.421891,-0.35632 -4.866486,-0.53851 -7.314438,-0.54513 z"
         style="display:inline;fill:#000000;fill-opacity:1;fill-rule:nonzero;stroke:none;stroke-width:2;stroke-linecap:butt;stroke-linejoin:round;stroke-dasharray:none;stroke-dashoffset:0;stroke-opacity:1;paint-order:normal"
         id="path132" />
      <path
         d="m 95.085784,255.9994 c -2.448531,0.0167 -4.893411,0.20916 -7.314411,0.57568 -5.071758,0.74763 -10.003882,2.25324 -14.628507,4.4656 v 9.58721 7.49666 7.13184 14.62849 7.31441 7.3141 14.62849 7.13183 7.49666 9.58722 5.04159 h 14.628507 v -0.57568 -14.05313 -0.75697 -0.0408 l 0.04723,0.0553 c 0.247613,0.25006 0.497814,0.49759 0.750526,0.74249 4.049791,3.93661 8.723388,7.17627 13.830731,9.58722 2.40384,1.14331 4.89334,2.09744 7.44556,2.85364 2.3525,0.70908 4.75307,1.2479 7.18294,1.61228 2.42121,0.36656 4.86568,0.55895 7.31442,0.57568 2.44802,-0.007 4.89248,-0.18902 7.31441,-0.54546 5.0689,-0.72792 10.00001,-2.21221 14.62851,-4.40325 v -9.68011 -7.32758 c -4.32886,3.24992 -9.32527,5.49843 -14.62851,6.58316 l -0.0142,0.003 c -2.39925,0.49054 -4.84172,0.73887 -7.29061,0.74122 l -0.01,2.8e-4 -0.003,-2.8e-4 c -2.45629,-0.006 -4.90579,-0.25998 -7.31121,-0.75729 -2.49546,-0.52363 -4.92948,-1.30683 -7.26201,-2.33678 -2.61972,-1.17331 -5.09234,-2.65109 -7.3665,-4.40259 -2.695167,-2.03641 -5.095416,-4.43667 -7.131849,-7.13183 h -0.174532 l -0.0077,2.8e-4 -0.0026,-2.8e-4 h 0.01063 c 0.0564,-0.002 0.112723,-0.004 0.169072,-0.007 -3.302746,-4.31301 -5.60336,-9.30813 -6.734235,-14.62142 h 6.555837 0.006 7.309597 1.40079 11.96515 1.26258 7.31281 0.006 6.56548 0.74442 13.36562 c 0.83318,-2.34846 1.26031,-4.82222 1.26289,-7.3141 -0.007,-2.44789 -0.18903,-4.89259 -0.54547,-7.31441 -0.72788,-5.0686 -2.21233,-10.00026 -4.40324,-14.62848 -2.43496,-5.12841 -5.70666,-9.81709 -9.6798,-13.87217 l -0.0145,-0.0152 c -0.24472,-0.24957 -0.49205,-0.49669 -0.74184,-0.74121 -4.05484,-3.97322 -8.74377,-7.24511 -13.87223,-9.68011 -2.32125,-1.099 -4.72258,-2.02203 -7.18232,-2.76075 -2.43756,-0.73175 -4.92698,-1.28087 -7.44619,-1.64249 -2.421728,-0.35652 -4.866505,-0.53873 -7.314197,-0.54536 z m 0,14.62849 c 2.456641,0.002 4.907461,0.25128 7.314096,0.74444 2.53141,0.52066 5.00111,1.30839 7.36648,2.34964 2.57513,1.12715 5.01228,2.54784 7.26203,4.23319 2.76646,2.07605 5.22497,4.53467 7.30091,7.30123 h 0.0135 l -0.0122,8.6e-4 c 3.24923,4.32828 5.49765,9.32482 6.58221,14.6272 h -6.56998 -7.31442 -1.26257 -11.96515 -1.40079 -7.314096 -6.557123 -0.75728 v -13.22771 -1.40079 -13.83102 -0.0402 l 0.04663,-0.0142 c 2.391497,-0.48963 4.8267,-0.73863 7.2678,-0.74314 z"
         style="display:inline;fill:#000000;fill-opacity:1;fill-rule:nonzero;stroke:none;stroke-width:2;stroke-linecap:butt;stroke-linejoin:round;stroke-dasharray:none;stroke-dashoffset:0;stroke-opacity:1;paint-order:normal"
         id="path136" />
      <path
         d="m 329.14288,255.99901 c -2.4485,0.0167 -4.89346,0.20916 -7.31443,0.57568 -2.42947,0.36427 -4.8302,0.90307 -7.18232,1.61196 -2.55226,0.75611 -5.04233,1.7104 -7.44622,2.85363 -5.10717,2.41079 -9.78144,5.65083 -13.83108,9.58723 -0.25282,0.24511 -0.50316,0.49288 -0.75086,0.74314 l -0.0466,0.0543 v 13.83105 1.40078 13.22771 7.31441 7.31409 13.22772 1.40079 13.83072 0.0408 0.75695 14.05315 0.57567 h 7.31443 7.31411 v -0.54546 -4.49613 -9.58723 -0.74442 -6.75224 -7.13183 -1.26258 -13.36593 h 1.40078 11.96519 1.26257 7.31283 0.006 6.5655 0.74443 13.36566 0.71742 0.54546 v 14.62851 7.3009 7.32759 9.68012 4.9487 h 14.62855 v -14.62882 -0.75631 -13.87218 -14.62851 -7.31408 -7.31441 -14.6285 -13.87219 c -0.24936,-0.25469 -0.50153,-0.50686 -0.75624,-0.75631 -4.05495,-3.97314 -8.74393,-7.24513 -13.87221,-9.68013 -4.62804,-2.19078 -9.56015,-3.67536 -14.62855,-4.40321 -2.42169,-0.35631 -4.86665,-0.53852 -7.31443,-0.54514 z m 0,14.6285 c 2.45173,0.002 4.89792,0.25011 7.29997,0.74121 l 0.0145,0.003 c 5.30272,1.08461 10.30011,3.33355 14.62855,6.58316 v 7.30091 14.6285 h -0.54548 -0.71744 -13.36565 -0.74443 -6.57001 -7.31443 -1.26257 -11.96518 -1.40079 v -13.36593 -1.26257 -7.13184 c 2.27401,-1.75139 4.74696,-3.22935 7.3665,-4.40259 2.33238,-1.02987 4.76675,-1.8132 7.26204,-2.33678 2.40623,-0.49747 4.85732,-0.75124 7.31443,-0.75728 z"
         style="display:inline;fill:#000000;fill-opacity:1;fill-rule:nonzero;stroke:none;stroke-width:2;stroke-linecap:butt;stroke-linejoin:round;stroke-dasharray:none;stroke-dashoffset:0;stroke-opacity:1;paint-order:normal"
         id="path134" />
      <path
         d="m 146.2857,255.99941 v 0.57568 14.05281 0.75729 0.0402 13.83104 1.40077 13.22772 7.3144 7.31409 13.22771 1.40078 13.83071 l 0.0472,0.0553 c 0.2476,0.25006 0.49782,0.4976 0.75053,0.7425 4.04968,3.93649 8.72355,7.17634 13.83076,9.58721 2.40376,1.14326 4.89346,2.09747 7.44558,2.85365 2.35239,0.70904 4.7532,1.24792 7.18296,1.61227 2.42106,0.36654 4.86583,0.55895 7.31443,0.57568 2.44788,-0.007 4.89264,-0.18904 7.31444,-0.54546 5.06856,-0.72787 10.00037,-2.21236 14.62854,-4.40324 5.12841,-2.43505 9.81717,-5.70689 13.87222,-9.68011 0.25472,-0.24945 0.50688,-0.50161 0.75632,-0.75633 v -13.87219 -14.6285 -7.31409 -7.3144 -14.62849 -13.87218 -0.75632 -14.62849 h -14.62854 v 4.94838 9.68011 7.32759 7.30091 14.62849 7.3144 7.31409 14.6285 7.3009 c -4.32857,3.24972 -9.32564,5.49851 -14.62854,6.58316 l -0.0141,0.003 c -2.39911,0.49052 -4.84191,0.73887 -7.29064,0.74122 l -0.01,2.8e-4 -0.003,-2.8e-4 c -2.45616,-0.006 -4.90592,-0.26 -7.31123,-0.75728 -2.49536,-0.5236 -4.92958,-1.30688 -7.26203,-2.33678 -2.61966,-1.17328 -5.09242,-2.65114 -7.36652,-4.40259 v -7.13183 -1.26256 -13.36593 -7.31409 -7.31441 -13.36592 -1.26257 -7.13183 -6.75223 -0.74443 -9.58745 -4.49612 -0.54515 h -7.31417 z"
         style="display:inline;fill:#000000;fill-opacity:1;fill-rule:nonzero;stroke:none;stroke-width:2;stroke-linecap:butt;stroke-linejoin:round;stroke-dasharray:none;stroke-dashoffset:0;stroke-opacity:1;paint-order:normal"
         id="path140" />
      <path
         d="m 256.00005,255.999 c -2.44849,0.0167 -4.89347,0.20915 -7.31444,0.57567 v 4.37271 9.68012 0.75728 6.56998 7.30122 1.40079 13.2277 7.3067 l 3e-4,0.008 -3e-4,0.008 v 7.30638 13.22771 1.40078 7.30123 6.56998 c -2.49542,-0.52362 -4.92953,-1.30687 -7.26203,-2.33679 -2.61968,-1.17329 -5.09238,-2.65111 -7.36651,-4.4026 v -7.13182 -1.26258 -13.36592 -7.31409 -7.31441 h -7.31411 -6.55714 -0.75729 v 7.31441 7.31409 13.22771 1.40079 13.8307 l 0.0472,0.0553 c 0.24762,0.25006 0.49782,0.49759 0.75054,0.74249 4.04978,3.93658 8.72344,7.17628 13.83076,9.58722 2.4038,1.14328 4.89342,2.09746 7.44558,2.85364 2.35243,0.70905 4.75316,1.24792 7.18296,1.61228 2.42112,0.36654 4.86578,0.55895 7.31443,0.57568 2.44793,-0.007 4.89259,-0.18903 7.31443,-0.54547 v -14.08335 -0.74442 -0.0119 -13.87217 -1.26256 -13.36595 -7.31409 -7.31442 -13.36591 -1.26258 -13.87216 -0.0119 c 5.30273,1.08461 10.30013,3.33356 14.62854,6.58315 v 7.30092 14.62848 7.31442 7.31408 h 13.88412 0.74443 v -7.31408 -7.31442 -14.62848 -13.87217 c -0.24944,-0.25471 -0.50162,-0.50689 -0.75633,-0.75633 -4.05493,-3.97311 -8.74392,-7.24513 -13.8722,-9.68011 -4.628,-2.1908 -9.56018,-3.6754 -14.62854,-4.40324 -2.42169,-0.35627 -4.86668,-0.53849 -7.31443,-0.54511 z"
         style="display:inline;fill:#000000;fill-opacity:1;fill-rule:nonzero;stroke:none;stroke-width:2;stroke-linecap:butt;stroke-linejoin:round;stroke-dasharray:none;stroke-dashoffset:0;stroke-opacity:1;paint-order:normal"
         id="path141" />
      <path
         d="m 387.65711,255.99911 c -2.44865,0.0167 -4.8933,0.20912 -7.31442,0.57567 -5.07203,0.74767 -10.00362,2.25313 -14.62849,4.46561 v 9.58726 7.49668 7.13187 14.62854 7.31442 7.31412 14.62855 7.13185 7.49669 9.58725 c 4.6249,2.21262 9.55639,3.71815 14.62849,4.46594 2.42106,0.36654 4.86583,0.55895 7.31442,0.57567 2.44776,-0.007 4.89241,-0.18905 7.31409,-0.54546 2.51903,-0.36166 5.00815,-0.91077 7.44555,-1.6425 2.45999,-0.7387 4.86146,-1.66171 7.18295,-2.76076 5.12847,-2.43501 9.81739,-5.7069 13.87249,-9.68014 0.24991,-0.24451 0.49735,-0.49164 0.74219,-0.74121 l 0.0141,-0.0152 c 3.97307,-4.05505 7.24487,-8.74389 9.6798,-13.87222 2.19083,-4.62808 3.67538,-9.56012 4.40325,-14.62855 0.3564,-2.42161 0.53871,-4.86642 0.54546,-7.31412 -0.007,-2.44776 -0.18906,-4.89274 -0.54546,-7.31442 -0.72786,-5.06839 -2.21244,-10.00052 -4.40325,-14.62854 -2.43487,-5.12824 -5.7068,-9.81727 -9.6798,-13.87223 l -0.0145,-0.0152 c -0.24474,-0.24958 -0.49207,-0.49669 -0.74186,-0.7412 -4.05519,-3.97333 -8.74393,-7.2451 -13.8725,-9.68016 -2.32133,-1.09904 -4.72248,-2.02199 -7.18231,-2.76075 -2.43769,-0.73179 -4.92685,-1.28086 -7.44619,-1.6425 -2.42172,-0.35624 -4.86626,-0.53843 -7.31407,-0.54507 z m 0,14.62854 c 2.45672,0.002 4.90738,0.25126 7.31409,0.74443 2.53148,0.52067 5.00105,1.30837 7.36648,2.34964 2.57518,1.1272 5.01223,2.54782 7.26202,4.23322 2.76639,2.076 5.22503,4.53476 7.30092,7.30126 h 0.0135 l -0.0122,8.5e-4 c 3.24908,4.32815 5.49768,9.32505 6.58218,14.62727 0.49317,2.4067 0.74262,4.85771 0.74443,7.31442 -0.003,2.45662 -0.25128,4.90751 -0.74443,7.31411 -1.08456,5.30241 -3.33322,10.29933 -6.58251,14.62759 l 0.01,5.7e-4 h 0.0106 l -0.008,2.8e-4 -0.003,-2.8e-4 h -0.0106 c -2.07592,2.76653 -4.53448,5.22521 -7.30092,7.30125 -2.24974,1.68537 -4.68687,3.10604 -7.26202,4.23322 -2.36538,1.04124 -4.83505,1.82898 -7.36648,2.34964 -2.40351,0.49252 -4.85099,0.74195 -7.30445,0.74443 l -0.01,2.9e-4 -0.003,-2.9e-4 c -2.43994,-0.004 -4.87356,-0.25332 -7.26396,-0.7425 l -0.0472,-0.0145 v -0.0408 -13.83076 -1.40078 -13.22776 -14.62855 -13.22775 -1.40079 -13.83108 -0.0402 l 0.0466,-0.0141 c 2.39161,-0.48965 4.82659,-0.73864 7.2678,-0.74314 z"
         style="display:inline;fill:#000000;fill-opacity:1;fill-rule:nonzero;stroke:none;stroke-width:2;stroke-linecap:butt;stroke-linejoin:round;stroke-dasharray:none;stroke-dashoffset:0;stroke-opacity:1;paint-order:normal"
         id="path142" />
      <path
         d="m 490.05704,256.0002 c -2.44848,0.0167 -4.89347,0.20916 -7.31443,0.57567 -2.42941,0.36427 -4.83025,0.9031 -7.18233,1.61196 -2.55219,0.75608 -5.04237,1.7104 -7.44621,2.8536 -5.10708,2.41072 -9.7815,5.65083 -13.83108,9.58713 -0.25281,0.2451 -0.50315,0.49288 -0.75086,0.74313 l -0.0466,0.0543 c -3.93642,4.04959 -7.17646,8.72379 -9.58725,13.83089 -2.21238,4.62462 -3.71798,9.5566 -4.46561,14.62835 -0.36654,2.42101 -0.55896,4.8658 -0.57568,7.31434 0.0167,2.44845 0.20915,4.89312 0.57568,7.31404 0.74764,5.07181 2.2532,10.00366 4.46561,14.62834 2.41086,5.10706 5.65081,9.78102 9.58725,13.83059 l 0.0472,0.0553 c 0.2476,0.25004 0.49783,0.49759 0.75053,0.74249 4.04966,3.93642 8.72359,7.17628 13.83076,9.58712 2.40376,1.14324 4.89347,2.09745 7.44558,2.85362 2.35239,0.70903 4.7532,1.24791 7.18296,1.61226 2.42111,0.36654 4.86581,0.55894 7.31444,0.57567 2.44791,-0.007 4.89261,-0.18904 7.31443,-0.54545 5.06872,-0.7279 10.00021,-2.21227 14.62855,-4.4032 v -9.68002 -7.32753 c -4.3287,3.24978 -9.3255,5.49844 -14.62855,6.58311 l -0.0141,0.003 c -2.39915,0.49052 -4.84187,0.73886 -7.29065,0.74121 l -0.01,2.8e-4 -0.003,-2.8e-4 c -2.4562,-0.006 -4.90589,-0.26 -7.31122,-0.75728 -2.49536,-0.52361 -4.92959,-1.30688 -7.26204,-2.33676 -2.61962,-1.17326 -5.09245,-2.65113 -7.36652,-4.40256 -2.69509,-2.03632 -5.0955,-4.43671 -7.13185,-7.13175 h -0.17457 l -0.008,2.8e-4 -0.003,-2.8e-4 h 0.0106 c 0.0563,-0.003 0.11273,-0.004 0.16907,-0.007 -3.30264,-4.31281 -5.60341,-9.30821 -6.73426,-14.62128 h 6.55587 0.006 7.30961 1.40079 11.96518 1.26258 7.31282 0.006 6.5655 0.74442 13.36566 0.71743 0.54544 v -7.31428 -7.31434 h -0.54545 -0.71744 -13.36564 -0.74443 -6.57 -7.31444 -1.26257 -11.96524 -1.40079 -7.31411 -6.55714 c 1.13066,-5.31278 3.43131,-10.30829 6.73361,-14.62096 -0.0588,-0.003 -0.11765,-0.005 -0.17647,-0.008 h 0.18225 c 2.03627,-2.69495 4.43688,-5.09553 7.13186,-7.13178 2.27397,-1.75134 4.747,-3.22934 7.36651,-4.40256 2.33234,-1.02983 4.76679,-1.81318 7.26203,-2.33675 2.40626,-0.49747 4.85731,-0.75124 7.31444,-0.75728 2.45178,0.002 4.89787,0.25009 7.29997,0.7412 l 0.0145,0.003 c 5.30276,1.08461 10.3001,3.33351 14.62855,6.5831 v -7.32751 -9.68003 c -4.62793,-2.19078 -9.55997,-3.67531 -14.6284,-4.40316 -2.4217,-0.3563 -4.86668,-0.53852 -7.31443,-0.54514 z"
         style="display:inline;fill:#000000;fill-opacity:1;fill-rule:nonzero;stroke:none;stroke-width:2;stroke-linecap:butt;stroke-linejoin:round;stroke-dasharray:none;stroke-dashoffset:0;stroke-opacity:1;paint-order:normal"
         id="path143" />
    </g>
  </g>
  <g
     id="layer2"
     style="display:inline"
     transform="translate(-4.2987041,-102.98486)">
    <g
       id="text541"
       style="font-weight:600;font-size:42.6667px;line-height:100%;font-family:'Exo 2';-inkscape-font-specification:'Exo 2, Semi-Bold';text-align:justify;letter-spacing:0px;white-space:pre;display:none;fill:#1086ce;fill-opacity:1;stroke:#224d84;stroke-width:7.84799;stroke-linejoin:round;stroke-dasharray:none;stroke-opacity:1;paint-order:markers stroke fill"
       transform="matrix(1.873817,0,0,1.873817,-355.18574,-149.546)"
       aria-label="CARBON&#10;CRUSADERS">
      <path
         id="path559"
         style="font-weight:600;font-size:42.6667px;line-height:100%;font-family:'Exo 2';-inkscape-font-specification:'Exo 2, Semi-Bold';text-align:justify;letter-spacing:0px;white-space:pre;display:inline;fill:#c9e8fd;fill-opacity:1;stroke:#224d84;stroke-width:9.742;stroke-linecap:butt;stroke-linejoin:round;stroke-dasharray:none;stroke-opacity:1;paint-order:markers stroke fill"
         d="m 246.77165,139.16088 a 69.088678,69.088678 0 0 0 -68.77475,64.66171 44.050299,44.050299 0 0 0 -8.162,-0.77522 44.050299,44.050299 0 0 0 -44.05173,44.05174 44.050299,44.050299 0 0 0 0.29489,4.08101 c -18.32752,4.10268 -31.956098,20.37039 -31.956098,39.97073 0,22.71518 18.287018,41.00216 41.002198,41.00216 h 241.73988 c 22.71515,0 41.0022,-18.28698 41.0022,-41.00216 0,-22.48187 -17.9199,-40.59978 -40.31025,-40.97019 a 58.633124,58.633124 0 0 0 4.02328,-20.94313 58.633124,58.633124 0 0 0 -58.6331,-58.6331 58.633124,58.633124 0 0 0 -16.72118,2.45371 69.088678,69.088678 0 0 0 -59.4532,-33.89726 z"
         transform="matrix(0.80558321,0,0,0.80558321,119.94697,26.586472)" />
      <path
         style="font-weight:600;font-size:42.6667px;line-height:100%;font-family:'Exo 2';-inkscape-font-specification:'Exo 2, Semi-Bold';text-align:center;letter-spacing:0px;text-anchor:middle;white-space:pre;display:inline;fill:#1086ce;fill-opacity:1;stroke:#224d84;stroke-width:7.84799;stroke-linejoin:round;stroke-dasharray:none;stroke-opacity:1;paint-order:markers stroke fill"
         d="m 254.96578,202.04432 c -9.30237,0 -12.62785,4.22425 -12.62785,16.0432 0,11.81894 3.32548,16.0432 12.62785,16.0432 4.26919,0 6.78578,-0.31455 9.52706,-1.1684 l -0.49434,-4.22425 c -2.65139,0.35949 -5.07809,0.44938 -9.03272,0.44938 -5.12305,0 -6.69591,-2.60646 -6.69591,-11.09993 0,-8.49346 1.57286,-11.09992 6.69591,-11.09992 3.72993,0 5.57243,0.0899 8.35864,0.31457 l 0.53926,-4.2692 c -2.69634,-0.71903 -4.76353,-0.98865 -8.8979,-0.98865 z m 31.00784,22.78405 2.56152,8.7631 h 5.75219 l -9.30237,-29.52491 c -0.26963,-0.9437 -1.07853,-1.48298 -2.02225,-1.48298 h -5.48255 c -0.94372,0 -1.75263,0.53928 -2.02227,1.48298 l -9.30235,29.52491 h 5.75219 l 2.56152,-8.7631 z m -1.34817,-4.62871 h -8.80803 l 3.10079,-10.69548 0.71902,-2.65139 h 1.21335 c 0.13482,0.85383 0.44939,1.79754 0.67408,2.65139 z m 36.53536,13.39181 -2.78621,-9.70682 c -0.67408,-2.96597 -2.60647,-4.22425 -4.13439,-4.58378 v -0.22468 c 4.26921,-0.53928 5.79713,-3.19068 5.79713,-7.81939 0,-7.05542 -3.14572,-9.07766 -10.78535,-9.07766 -5.3028,0 -7.7295,0.045 -11.27968,0.40444 v 31.00789 h 5.57243 V 221.1883 h 5.57244 c 1.88743,0 2.96597,0.76398 3.5951,2.78622 l 2.47165,9.61695 z M 303.54474,216.5596 v -9.75175 h 5.57244 c 3.95462,0 5.21291,0.98865 5.21291,4.80847 0,3.81981 -1.25829,4.89834 -5.21291,4.94328 z m 38.96206,0.85384 c 3.77488,-0.35951 5.3028,-2.65139 5.3028,-7.10036 0,-6.38132 -2.78622,-8.08901 -10.60559,-8.08901 -4.9433,0 -7.63963,0.045 -10.96512,0.35951 v 31.00789 c 3.72994,0.31457 6.69592,0.35951 12.35823,0.35951 7.23517,0 10.1562,-1.70768 10.1562,-8.08902 0,-4.94328 -1.57286,-7.86431 -6.24652,-8.26876 z m -5.57243,-10.65054 c 4.13439,0 5.48256,0.8089 5.48256,4.26921 0,3.55017 -1.2583,4.44894 -5.03316,4.44894 h -5.61737 v -8.71815 z m -5.16797,22.6043 v -9.79669 h 5.70725 c 4.2692,0.045 5.6623,1.12348 5.6623,5.25786 0,3.72993 -1.30323,4.58378 -5.48255,4.58378 z m 34.37832,-27.36783 c -9.43719,0 -12.76267,3.77488 -12.76267,16.08815 0,12.31328 3.32548,16.08815 12.76267,16.08815 9.48212,0 12.8076,-3.77487 12.8076,-16.08815 0,-12.31327 -3.32548,-16.08815 -12.8076,-16.08815 z m 0,4.80848 c 5.25785,0 6.87565,2.65139 6.87565,11.27967 0,8.62829 -1.6178,11.27968 -6.87565,11.27968 -5.21292,0 -6.83073,-2.65139 -6.83073,-11.27968 0,-8.62828 1.61781,-11.27967 6.83073,-11.27967 z m 43.86039,-4.22427 h -5.48255 v 20.04278 c 0,1.66274 0.0898,3.32547 0.2247,5.03317 h -0.53928 c -0.67408,-1.66275 -1.57286,-3.55019 -2.15706,-4.89835 l -8.44853,-18.46993 c -0.53926,-1.16839 -1.12347,-1.70767 -2.33682,-1.70767 h -4.35908 c -1.34818,0 -2.11213,0.71903 -2.11213,2.06719 v 28.9407 h 5.52749 v -20.67193 c 0,-1.52793 -0.045,-3.10078 -0.26963,-4.67366 h 0.53926 c 0.31458,1.43805 1.25828,3.37044 1.8425,4.62872 l 8.71817,19.00919 c 0.49431,1.1684 1.12347,1.70768 2.33681,1.70768 h 4.44896 c 1.34817,0 2.06719,-0.71903 2.06719,-2.06719 z"
         id="path566" />
      <path
         style="font-weight:600;font-size:42.6667px;line-height:100%;font-family:'Exo 2';-inkscape-font-specification:'Exo 2, Semi-Bold';text-align:center;letter-spacing:0px;text-anchor:middle;white-space:pre;display:inline;fill:#1086ce;fill-opacity:1;stroke:#224d84;stroke-width:7.84799;stroke-linejoin:round;stroke-dasharray:none;stroke-opacity:1;paint-order:markers stroke fill"
         d="m 243.86587,246.98329 c -9.30236,0 -12.62785,4.22426 -12.62785,16.0432 0,11.81896 3.32549,16.0432 12.62785,16.0432 4.2692,0 6.78579,-0.31456 9.52706,-1.16841 l -0.49433,-4.22425 c -2.6514,0.3595 -5.0781,0.44939 -9.03273,0.44939 -5.12303,0 -6.69591,-2.60646 -6.69591,-11.09993 0,-8.49346 1.57288,-11.09992 6.69591,-11.09992 3.72994,0 5.57243,0.0899 8.35865,0.31458 l 0.53926,-4.26921 c -2.69633,-0.71902 -4.76353,-0.98865 -8.89791,-0.98865 z m 37.61387,31.54714 -2.78621,-9.70681 c -0.67408,-2.96596 -2.60646,-4.22426 -4.13438,-4.58378 v -0.22469 c 4.2692,-0.53927 5.79712,-3.19066 5.79712,-7.81937 0,-7.05543 -3.14574,-9.07768 -10.78535,-9.07768 -5.3028,0 -7.7295,0.045 -11.27968,0.40444 v 31.00789 h 5.57244 v -12.40315 h 5.57242 c 1.88744,0 2.96598,0.76397 3.59512,2.78621 l 2.47165,9.61694 z m -17.61606,-17.03186 v -9.75176 h 5.57242 c 3.95463,0 5.21292,0.98865 5.21292,4.80847 0,3.81981 -1.25829,4.89835 -5.21292,4.94329 z m 46.15229,-13.97603 h -5.6623 v 18.87437 c 0,5.97689 -1.57286,7.90925 -6.15664,7.90925 -4.67365,0 -6.24653,-1.93236 -6.24653,-7.90925 v -18.87437 h -5.61736 v 18.87437 c 0,9.25744 3.23561,12.71773 12.08859,12.71773 8.49346,0 11.59424,-3.46029 11.59424,-12.71773 z m 16.04318,-0.53925 c -7.41491,0 -10.65052,1.21334 -10.65052,8.31369 0,4.62873 1.66275,7.50482 6.24652,8.9878 l 6.24651,1.97732 c 2.24695,0.71902 3.28055,1.25828 3.28055,4.08944 0,3.19067 -1.12348,3.77488 -5.16798,3.77488 -2.15708,0 -3.95463,-0.045 -9.84165,-0.17976 l -0.3595,4.13439 c 4.4939,0.89877 8.17889,0.98864 10.06633,0.98864 7.95419,0 11.01004,-1.61779 11.01004,-8.67321 0,-4.53882 -1.48298,-7.45986 -6.38133,-9.03273 l -5.97687,-1.8425 c -2.42672,-0.76395 -3.46032,-1.39311 -3.46032,-4.13439 0,-3.32547 1.39312,-3.55017 5.16799,-3.55017 3.05586,0 6.65096,0.0899 9.21248,0.17976 l 0.35952,-3.99956 c -3.32549,-0.85385 -6.78578,-1.0336 -9.75177,-1.0336 z m 32.85038,22.78405 2.56153,8.76309 h 5.75219 l -9.30237,-29.5249 c -0.26964,-0.94371 -1.07854,-1.48299 -2.02226,-1.48299 h -5.48256 c -0.94372,0 -1.75261,0.53928 -2.02224,1.48299 l -9.30237,29.5249 h 5.75219 l 2.56152,-8.76309 z m -1.34816,-4.62872 h -8.80804 l 3.10079,-10.69547 0.71903,-2.6514 h 1.21335 c 0.13481,0.85384 0.44937,1.79756 0.67408,2.6514 z m 24.9411,-18.02052 c -4.53884,0 -8.17889,0.17976 -11.59426,0.40444 v 31.00789 c 3.41537,0.2247 7.10037,0.40444 11.59426,0.40444 9.30238,0 12.67279,-3.77486 12.67279,-15.90838 0,-12.13352 -3.37041,-15.90839 -12.67279,-15.90839 z m 0,27.09819 c -2.24695,0 -4.22426,-0.045 -5.97688,-0.0898 v -22.28971 c 1.79756,0 3.685,-0.045 5.97688,-0.045 5.12304,0 6.74085,2.69634 6.74085,11.23474 0,8.53841 -1.61781,11.1898 -6.74085,11.1898 z m 38.33292,-0.22469 h -12.13353 c -1.6178,0 -2.24694,-0.67408 -2.24694,-2.60647 v -6.92059 h 12.71772 v -4.31414 h -12.71772 v -5.43763 c 0,-1.93236 0.62914,-2.60644 2.24694,-2.60644 h 12.13353 l 0.26963,-4.31415 c -4.08944,-0.35951 -9.12261,-0.35951 -13.66144,-0.35951 -4.04451,0 -6.60603,2.24695 -6.65098,5.887 v 19.41364 c 0.045,3.64005 2.56153,5.887 6.65098,5.887 4.53883,0 9.572,0 13.66144,-0.35951 z"
         id="path567" />
    </g>
    <g
       id="g557"
       style="display:inline;fill:#1086ce;fill-opacity:1;stroke:#224d84;stroke-opacity:1"
       transform="matrix(4.9018124,0,0,4.9018124,-1022.416,-369.17661)">
      <g
         id="g567"
         transform="translate(5.25867)"
         style="display:inline">
        <path
           id="rect555"
           style="display:inline;fill:#c9e8fd;fill-opacity:1;stroke:#224d84;stroke-width:3;stroke-linecap:butt;stroke-linejoin:round;stroke-dasharray:none;stroke-opacity:1;paint-order:markers stroke fill"
           d="m 257.96472,97.823857 a 21.275905,21.275905 0 0 0 -21.17923,19.912623 13.565319,13.565319 0 0 0 -2.51349,-0.23873 13.565319,13.565319 0 0 0 -13.56576,13.56576 13.565319,13.565319 0 0 0 0.0908,1.25675 c -5.64398,1.26342 -9.8409,6.27308 -9.8409,12.30901 0,6.99516 5.6315,12.62665 12.62665,12.62665 h 74.44396 c 6.99515,0 12.62665,-5.63149 12.62665,-12.62665 0,-6.9233 -5.51844,-12.50272 -12.41357,-12.61679 a 18.056109,18.056109 0 0 0 1.23898,-6.44945 18.056109,18.056109 0 0 0 -18.0561,-18.05611 18.056109,18.056109 0 0 0 -5.1493,0.75562 21.275905,21.275905 0 0 0 -18.30865,-10.438683 z"
           transform="translate(-5.25867)" />
        <path
           style="font-weight:600;font-size:42.6667px;line-height:100%;font-family:'Exo 2';-inkscape-font-specification:'Exo 2, Semi-Bold';text-align:center;letter-spacing:0px;text-anchor:middle;white-space:pre;display:inline;fill:#1086ce;fill-opacity:1;stroke:#224d84;stroke-width:3;stroke-linejoin:round;stroke-opacity:1;paint-order:markers stroke fill"
           d="m 244.4607,121.01725 c -8.832,0 -11.98934,4.01067 -11.98934,15.23201 0,11.22134 3.15734,15.23201 11.98934,15.23201 4.05334,0 6.44267,-0.29866 9.04534,-1.10933 l -0.46933,-4.01067 c -2.51734,0.34133 -4.82134,0.42667 -8.57601,0.42667 -4.864,0 -6.35734,-2.47467 -6.35734,-10.53868 0,-8.064 1.49334,-10.53867 6.35734,-10.53867 3.54134,0 5.29067,0.0853 7.93601,0.29866 l 0.512,-4.05333 c -2.56,-0.68267 -4.52267,-0.93867 -8.44801,-0.93867 z"
           id="text553"
           aria-label="C" />
        <path
           style="font-weight:600;font-size:42.6667px;line-height:100%;font-family:'Exo 2';-inkscape-font-specification:'Exo 2, Semi-Bold';text-align:center;letter-spacing:0px;text-anchor:middle;white-space:pre;display:inline;fill:#1086ce;fill-opacity:1;stroke:#224d84;stroke-width:3;stroke-linejoin:round;stroke-opacity:1;paint-order:markers stroke fill"
           d="m 269.57549,121.01725 c -8.832,0 -11.98934,4.01067 -11.98934,15.23201 0,11.22134 3.15734,15.23201 11.98934,15.23201 4.05334,0 6.44267,-0.29866 9.04534,-1.10933 l -0.46933,-4.01067 c -2.51734,0.34133 -4.82134,0.42667 -8.57601,0.42667 -4.864,0 -6.35734,-2.47467 -6.35734,-10.53868 0,-8.064 1.49334,-10.53867 6.35734,-10.53867 3.54134,0 5.29067,0.0853 7.93601,0.29867 l 0.512,-4.05333 c -2.56,-0.68267 -4.52267,-0.93867 -8.44801,-0.93868 z"
           id="path554"
           aria-label="C" />
      </g>
    </g>
  </g>
</svg>
